<?xml version="1.0" encoding="UTF-8"?>
<svg id="Capa_1" data-name="Capa 1" xmlns="http://www.w3.org/2000/svg" viewBox="0 0 967.11 1031.11">
  <path d="M492.38,627.64c2.28,11.8,11.02,24.9,13.14,36.28,4.1,21.95-13.79,83.61-35.51,94.69-9.23,4.71-40.18,10.66-44.75-.54-2.11-5.18-9.82-35.93-10.42-41.65-1.28-12.15,3.13-10.96,7.45-19.41,8.73-17.07,16.18-34.72,24.12-52.17l45.97-17.21Z"/>
  <path d="M483.5,234.27c-.56,7.84,1.77,15.38,2.09,23.06,1.49,35.56-4.3,78.95-11.06,113.95-.43,2.2-.26,9.83-3.74,8.36l-63.06-75.66-8.97-36.19,56.83-50.88c5.21-1.27,19.85,17.37,27.9,17.36Z"/>
  <path d="M379.69,563.48c2.14,8.25,4.93,16.64,3.89,25.33-2.34,19.56-26.4,69.92-40.84,83.28-3.57,3.31-26.12,14.98-31.14,16.62-1.58.52-2.89,2.06-4.69.59l-18.75-38.23c2.07-26.8,9.83-52.37,19.63-77.23l71.9-10.36Z"/>
  <path d="M387.77,596.54c4.21.55,8.7,1.26,12.77,2.47,4.52,1.34,38.41,14.04,39.94,15.54,2.67,2.62,2.17,21.12,1.54,25.91-2.83,21.47-27.64,69.89-49.66,76.91-32.18,10.26-45.51-13.03-45.53-41.92,5.02-10.98,13.88-19.77,19.95-30.47,8.81-15.53,13.36-32.9,20.99-48.44Z"/>
  <path d="M568.73,683.09c-1.86,11.45,2.21,24.48,1.57,35.29-1.32,22.55-16.3,50.16-18.34,73.54l-30.84,14.33c-6.19-.63-35.42-34.74-35.16-42.24,10.41-29.17,21.12-58.77,25.57-89.6,1.09-1.14,25.6,8.68,30.33,8.68h26.87Z"/>
  <path d="M576.11,721.66c2.06-2.21,14.79-8.56,19.54-12.53,13.94-11.65,28.21-28.19,38.11-43.38,1.97,14.03.34,28.41.79,42.54.49,15.33,3.19,30.53,1.59,46.53-3.17,31.77-27.34,60.84-57.91,69.84-2.83-.3-21.29-29.05-21.55-33.3-.38-6.13,16.27-66.32,19.43-69.71Z"/>
  <path d="M528,206.56c5.5,7.87,25.24,23.53,26.77,31.86,1.51,8.21.56,28.8.07,38.05-.46,8.64-5.95,55.41-13.22,57.87-9.27-.73-51.46,4.11-54.19-6.1.36-30.96,4.86-62.2,1.79-93.05l38.78-28.62Z"/>
  <path d="M627.25,232.66c2.3,26.23-2.92,52.12-5.11,78.16-5.73,4.77-30.95,28.46-36.56,26.97-5.02-1.33-27.23-25.67-28.61-30.47-1.13-3.92-.52-10.85-.35-15.22.66-16.49,4.16-33.3,3.8-49.95,10.92-13.33,21.27-27.27,35.44-37.37,6.91-1.38,25.19,24.02,31.4,27.88Z"/>
  <path d="M664.07,376.17l-8.89-23.15c-3.01-13.97-27.86-38.5-27.56-50.44.31-12.43,2.33-28.81,3.76-41.48,1.17-10.33,3.28-20.86,4.84-31.15,13.07-8.35,28.31-13.77,39.15-25.39,1.77-.02,13.87,29.96,14.33,32.45,5.56,29.86-7.19,78.78-15.69,108.34-2.98,10.37-7.2,20.39-9.93,30.82Z"/>
  <path d="M361.91,295.05c33.62-7.66,50.84,20.75,68.13,43.88-1.42,33.36-25.47,44.59-49.73,61.18-12.06,2.14-37.72-44.53-41.73-54.71-4.34-11.04-4.37-23.17,2.28-33.25,2.73-4.14,16.49-16.06,21.05-17.1Z"/>
  <path d="M322.07,343.65c3.88-.69,8.72-1.53,11.72,1.35l30.3,52.94-6.04,33.71-31.19,15.52c-17.66-5.72-23.7-18.74-28.49-35.54-4.14-14.5-8.93-41.72.8-54.48,2.43-3.18,18.82-12.77,22.9-13.5Z"/>
  <path d="M665.81,627.61c-3.82,28.16.12,57.08-3.94,85.34-2.59,18.01-7.71,46.64-23.78,56.83,8.34-29.24-.38-59.97,1.74-89.27.82-11.29,8.77-36.09,6.54-44.71-.39-1.51-3.83-4.2-3.09-4.71l22.53-3.48Z"/>
  <path d="M293.03,540.91c1.37,7.02,14.81,20.28,13.57,26.4-.53,2.62-5.19,10.18-6.63,14.31-3.02,8.72-8.35,32.29-12.31,37.98-1.95,2.8-15.25,9.68-17.13,8,.99-6.87-6.35-12.24-7.93-17.28-1.28-4.07,5.92-41.36,8-47.66,1.91-5.77,12.86-16.48,18.08-20.07,1.46-1,1.82-2.37,4.34-1.69Z"/>
  <path d="M280.44,381.71c2.56-.56,6.77-1.1,8.4,1.3.79,1.17,3.67,22.62,5.1,27.83,1.52,5.52,10.62,24.92,10.62,26.89,0,3.53-12.04,24.3-16.07,25.02-16.44-12-32.83-42.89-24.74-63,2.03-5.06,11.23-16.86,16.69-18.05Z"/>
  <path d="M244.51,601.6c-.91-9.55,1.84-18.66,4.35-27.74.77-2.78,10.33-31.51,12.97-29.48.57,5.34,5.22,9.13,5.27,14.68.04,3.5-4.86,29.29-6,33.98-2.39,9.86-7.66,8.99-16.6,8.55Z"/>
  <path d="M265.31,462.88c-11.24-13.91-29.85-27.66-9.52-43.31,8.26,13.46,13.02,27.41,9.52,43.31Z"/>
  <path d="M660.62,624.11l-21.69,5.2-12.96,32.96c1.14-8.79.65-28.69,5.07-35.65,2.87-4.53,14.69-9.47,18.46-14.54l11.12,12.04Z"/>
  <path d="M632.43,596.64c5.94-1.49,9.35,9.98,14.29,12.75l-17.94,12.88-11.28-14.39c.34-1.74,13.09-10.79,14.92-11.25Z"/>
  <path d="M648.46,353.64c10.69,19.3,1.74,24.07-15.57,31.2,3.94-12.04-1.17-29.74,15.57-31.2Z"/>
  <path d="M613.72,572.21c-.03,3.73,3.34,8.34,1.01,12.03-.37.58-10.14,8.33-10.8,8.51-4.19,1.12-8.34-4.86-10.73-7.94l.61-4.04c6.04-3.83,12.16-9.5,19.91-8.56Z"/>
  <path d="M625.92,580.78l4.49,12.13-17.22,12.01c-15.86-10.01,4.74-17.42,12.73-24.14Z"/>
  <path d="M632.87,362.32c.93,9.13-4.57,14.78-13.85,13.85-2.08-1.8,12.02-15.93,13.85-13.85Z"/>
  <path d="M624.2,641.46c-6.34-4.2-1.25-14.71-5.18-20.78,10.99,2.09,4.82,13.69,5.18,20.78Z"/>
</svg>