<svg version="1.2" xmlns="http://www.w3.org/2000/svg" viewBox="0 0 401 477" width="401" height="477">
	<style>
		.s0 { fill: #e9510e } 
	</style>
	<path fill-rule="evenodd" class="s0" d="m368.52 74.42l-2.38 1.55-4.34 2.48-2.87 1.78-2.06 1.75-2.38 2.89-1.4 1.76-1.34 1.34-2.66 2.14-1.55 0.98-1.29 0.93-1.19 0.77-0.05-0.25-0.39-0.6-0.05-0.01-0.28-0.38-0.03-0.07-0.13-0.15-0.02-0.03-0.03-0.05-0.02-0.02-0.16-0.22-0.45-0.45-0.4-0.45-0.07-0.02-0.09-0.09-0.38-0.59 0.26-0.05 1.24-1.19 1.42-1.62 0.69-1.22 0.17-0.45 0.02 0.01 0.33-1 0.44-1.84 0.96-0.59 0.46-0.36 0.93-0.72 0.23-0.18 0.72-0.68 0.76-0.69 0.34-0.36 0.33-0.31-0.01-0.03 0.24-0.25 0.1-0.06 0.93-0.72 0.02-0.07 1.84-1.38 0.75-0.95v-0.67l-0.64 0.13-1.29 0.93-2.22 1.65-2.84 1.65-0.84 0.38-0.19-0.01 0.12-1.28-0.31-0.87-0.54-0.7-0.18-0.23-0.64-0.5-0.16-0.15h-0.03l-0.13-0.1-1.28-1.2-0.97-0.92-0.92-1.01v-0.67l0.52-2.79-0.16-0.77-0.09-0.07-0.16-0.55 1.08-0.62 2.38-1.55 3.3-2.27 1.63-1.13 0.03-0.01 4.23-2.99 0.12-0.13 1.64-1.16 2.04-1.21 2.55-0.65 0.24-0.18 0.69-0.54 0.5-0.9v-0.67l-0.47-0.31-0.3-0.07 0.02-0.01-1.96-0.42-0.93 0.06-0.11 0.15 0.18 0.9-0.2 0.31-0.93 0.73-1.5 0.56-2.38 0.88-3.15 1.03-2.12 0.83-2.63 0.93-3 1.13-3.84 1.57-2.85 1.24-3.22 1.32-2.56 1.31-5.19 2.92-2.38 1.54-1.75 1.29-2.2 1.79-0.75 0.28-0.08-0.39 0.13-0.7v-0.67l-0.38 0.08-0.64 0.83-0.55 0.62-0.9 0.89-0.91 0.81-0.62 0.26-0.1-2.53-0.41-2.07-0.24-0.49-0.59-0.96h-0.67l-0.67 1.35-0.52 0.77-0.93 0.72-1.27 0.39-0.33-0.34-0.47-1.65-0.51-1.24-0.54-0.02-0.26 0.72-0.8 0.69-0.75 0.29-0.47-0.31-0.36-1.14-0.44-0.18-0.77 0.16-0.72-0.26-0.86-0.24 0.03-0.54 0.13-0.69 0.72-0.42 1.84-1.57 1.44-1.5 1.24-1.19 1.48-1.36 1.42-0.96-0.08 0.96 0.18 0.9 0.77 0.52 0.91-0.18 0.36-0.21 0.52-0.77-0.18-0.91-0.43-0.34-0.06-0.1h-0.07l-0.24-0.2-1.63-0.08-0.03-0.13 0.86-1.11 1.34-1.34 1.58-1.52 0.8-0.7 1.6-1.39 2.22-1.66 0.86-0.46 0.48-0.21 1.04-0.6 0.41-0.22 1.09-0.66 0.95-0.55 0.04-0.05 0.63-0.37h0.05l0.7-0.54 0.05-0.08 0.52-0.44 0.36-0.87-0.18-0.91-0.21-0.36-0.03 0.01-0.33-0.47-0.98-0.88-1.21-0.7-2.97-1.42-0.43-0.12-0.19-0.3 0.31-0.46 1.24-1.19 0.96-1.26 0.77-1.5-0.15-0.77-0.16-0.11-1.14 0.36-1.49 1.24-2.02 2.02-0.49 0.23-0.9-0.49-0.11-0.56 0.7-0.5 0.28-0.35 0.06 0.01 0.41-0.62 0.31-1.13 1.16-0.91 0.86-1.11 0.69-1.21-0.05-0.93-0.15-0.1-0.65 0.13-0.72 0.41-1.03 0.88-0.86 1.11-0.24 1.32-0.22 0.19-0.45 0.28-0.07 0.01-0.59 0.39-0.91 0.85-0.31-0.88-0.72-0.25-0.46-0.31-0.57-0.16-0.05-0.26-0.93-0.62-1.65-0.88-0.88 0.31-0.31-1.55 0.05-0.41-0.28-1.42-0.21-0.36-0.49-0.44-0.85-0.23-1.42 0.28-2.27 0.72-2.77 0.96-1.16 0.23-0.31-0.21-0.77 0.16-0.8 0.69-0.83 0.57-2.53 0.77-3.46 0.83-1.6 0.05-0.08-0.39 0.26-0.05 0.44-0.49 3.02-3.02 0.67-0.67 1.12-1.1 1.36-1.28 0.92-0.87 1.46-1.34 0.03-0.05 1.57-1.35 0.77-0.69 0.83-0.7 0.06-0.09 0.28-0.25 0.17-0.19 0.06 0.01 0.65-0.8 0.36-0.88-0.18-0.9-0.29-0.08-0.01 0.02-0.4-0.07-0.62 0.26-0.93 0.72-1.24 1.19-1.99 2.14-1.76 1.96-2.45 2.51-1.55 1.65-2.12 2.17-1.65 1.8-1.11 1.16-1.99 2.15-1.24 1.18-0.73 1.09-1.42 1.62-1.96 2.27-1.76 1.97-1.42 1.62-2.09 2.3-1.55 1.65-1.32 1.47-2.01 2.01h-1.35l-0.05 0.42 0.47 0.31-0.06 0.41-1.75 1.96-1.89 1.99-1.42 1.63-1.76 1.96-1.55 1.65-1.21 1.32-0.57 0.51-0.05 0.41-0.49 0.24-0.31 0.46-0.88 0.98-1.65 1.81 0.05 0.26-0.26 0.05-1.76 1.96-0.52 0.57-0.7 0.54-1.24 1.19-43.51 45.59-1.76 1.96-2.45 2.5-1.55 1.66-2.12 2.16-1.65 1.81-1.11 1.16-0.84 0.9-0.37-0.05-0.05 0.42h0.08l-0.81 0.88-1.24 1.18-0.73 1.09-1.42 1.62-15.69 17.47-1.76 1.96-1.42 1.63-2.09 2.3-1.55 1.65-1.32 1.47-2.02 2.01-20.55 21.03-0.05 0.41 0.46 0.31-0.05 0.42-1.76 1.96-1.88 1.98-1.42 1.63-0.47 0.52-0.02-0.08-0.41-0.05-0.15 0.56v0.22l-0.71 0.79-1.55 1.65-1.21 1.32-0.57 0.52-0.05 0.41-0.36 0.17 0.11-0.59-0.52 0.11-0.21 0.31-12.55 13.21-0.05 0.41-0.73 0.42-0.95 1.26-0.57 0.52-0.05-0.26-0.55-0.03-0.46 0.36-0.75 0.96-0.88 0.98-1.01 1.01-1.29 1.6-1.08 1.29-0.26 0.72h-0.67l-0.08 0.28-0.41 0.62-0.06 0.42-0.25 0.05-0.55 0.64-0.05 0.42 0.49 0.43-0.26 0.06-0.38 0.74-0.55 0.65-0.62 0.26-0.59-0.29-0.36 0.21-0.03 0.54 0.26-0.05v0.67l-0.26 0.05-0.31 0.47-0.15 0.57 0.16-0.04-0.12 0.09-0.26 0.72-0.78 0.83-1.18 1.44-0.86 1.11-0.05 0.42-0.46 0.36-0.91 0.18v0.67l-0.82 0.57-1.14 1.03-0.41 0.62-0.68 0.67-0.05 0.41-0.26 0.05 0.06 0.26-0.26 0.05-15.43 15.27-1.01 1-1.03 0.21-0.99 1.14-0.15 0.56-0.26 0.06-0.67 0.67 0.23 0.49 0.8-0.03v0.67l-0.26 0.06-0.05 0.41 0.8 0.64-0.26 0.06-0.18 0.43-0.38 0.75 0.41 0.06 1.11-1.17 1.21-1.31 1.35-1.34 1.21-0.65-0.05 0.41-0.6 1.06-1.65 1.81-0.31 0.46 0.52-0.1 1.03-0.88 2.15-2.04 1.16-0.9 0.05 0.26-0.36 0.21-1.11 1.16-1.09 1.29-0.15 0.57 0.25-0.06 1.06-0.74 1.22-1.32 0.7-0.54 15.81-15.34 0.6-0.39 0.05 0.26-0.88 0.98-15.28 14.69-0.72 1.09v0.67l0.39-0.08 15.82-15.34 1.57-1.52 1.14-1.03 1.24-1.19 1.13-1.03 0.55-0.65 0.85-0.44 0.18-0.44 0.36-0.2-0.02 0.54-0.78 0.83-4.37 4.36-1.11 1.16-15.84 15.21-1.11 1.16-0.7 1.22-0.46 0.36-0.39-0.6-0.62 0.26-1.03 0.21-0.11 0.15-3.28 3.74-1.24 1.19-1.55 1.65 0.05 0.26-0.25 0.05-0.16 0.57 0.26-0.05-0.05-0.26 0.26-0.05 0.67-0.67 0.33-0.34 0.22-0.24 0.56-0.58 0.01-0.06 0.09-0.1 1.5-1.24 1.27-0.38 0.59-0.39 0.62-0.26-0.05 0.42-1.73 2.09-1.55 1.65-1.12 1.16-1.09 1.15-0.02 0.01-0.01 0.02-0.76 0.81-1.11 1.16-1.24 1.19-1.99 2.14-1.76 1.96-1.55 1.65-1.52 1.78-1.4 1.76-0.87 0.84-0.03 0.01-0.44 0.45-0.57 0.56-0.27 0.31-0.17 0.18-1.35 1.58-0.95 1.02-0.83 0.97-0.05 0.01-0.41 0.5-0.03-0.01-0.64 0.8-1.53 1.78-1.16 1.58v0.17l-0.08 0.11 0.08 0.17v0.22l0.12 0.03 0.04 0.07 0.07-0.04 0.05 0.02 0.06-0.08 0.18-0.1 0.32-0.64 0.53-0.47 0.38-0.35 0.03-0.02 0.05 0.01 0.68-0.67 0.79-1.07 0.16-0.2 0.54-0.64 1.32-1.48 0.78-0.82 0.03-0.05 0.41-0.44 0.95-0.6 0.65-0.8 0.54-0.64 0.32-0.42 0.43-0.54 0.53-0.64h0.01l0.65-0.8 1.08-1.29 0.73-0.41 1.09-1.26 1.34-1.38 0.33-0.33 0.76-0.89 0.22-0.25 0.24-0.29 0.31-0.35 0.34-0.44 0.3-0.36 0.15-0.21 0.6-0.75 1.09-1.29 1.16-1.57 0.67-0.67 0.67-0.68 1.16-1.57 0.68-0.67-0.06-0.26 0.37-0.21 0.56-0.51 1.35-1.34 1.42-1.63 1.19-1.44 1.7-1.55 1.24-1.19 16.1-15.94 1.66-1.8 1.73-1.42 0.26-0.72 0.69-0.55 1.43-1.62 1-1.01 0.88-0.98 0.93-0.05-0.08-1.06 0.26-0.05 0.44-0.49 1.11-1.16 0.85-1.11 0.7-0.54 0.98-1.14 1.79-1.83 1.65-1.85 0.08 0.02 0.03 0.07 0.07-0.04 0.06 0.02 0.05-0.08 0.18-0.1 0.33-0.64 0.53-0.47 0.37-0.35 0.03-0.02 0.06 0.01 0.67-0.68 0.64-0.84 0.03-0.03-0.08 0.28-1.19 1.45-1.52 1.78-1.09 1.29-1.21 1.31 0.05 0.26-0.36 0.21-1.86 2.12-1.53 1.78-1.26 1.73-1.09 1.29-1.83 2.24-1.09 1.29-1.39 1.76-1.5 1.91-15.77 15.6-0.25 0.34-0.26-0.04-0.33 0.34-0.98 1.14-1.3 1.47h-0.02l-0.11 0.15-0.85 1.11-0.02 0.21-0.06 0.08 0.04 0.04-0.01 0.08 0.08 0.01 0.07 0.1 0.11-0.07 0.15 0.02 0.27-0.29 0.07-0.05-0.01-0.02 0.37-0.41-0.11 0.17-0.98 1.14-0.63 0.3-0.04-0.09-0.38 0.07-0.57 0.52-0.26 0.72 0.34 0.34 0.03-0.02-0.35 0.28-0.57 0.51-0.05-0.26-0.62-0.41-0.91 0.18-1.21 0.65-0.7 0.54 0.26 0.62 1.42 0.39 1.08 0.05 0.21 0.36-0.34 0.33-1.08 1.29-1.52 1.79-1.4 0.41-1.21 0.64-0.49 0.91 0.23 0.49 0.69 0.13-0.02 0.54-1.09 1.29-1.16 0.9-0.9 1.53-1.11 0.49-0.41 1.06-0.5 0.46-0.93 0.72-0.44 0.49-0.2 0.98-0.57 0.52-0.21 0.22-0.03-0.04-0.98 1.14-0.49 0.23-0.31-0.21-0.46 0.36-0.03 1.15-0.7 0.61-0.18 0.44-0.69 0.54-0.01 0.04-0.4 0.33-0.06-0.01-0.57 0.52-0.29 0.56-0.43 0.55-0.54 0.62-0.55 0.64-0.44 0.49-0.81 0.97-0.71 0.81-0.01 0.02-0.97 1.12-1.53 1.78-0.8 1.37-0.06 1.32-0.14 0.41-0.44 0.41-1.11 0.49-0.13 0.69-0.68 1.35h0.02l-0.19 0.37-0.03-0.06-0.08 0.28-0.83 0.57-0.36 0.88-0.8 0.69-0.12 0.16-0.11 0.02-0.51 0.78-1.14 1.03-1.03 1.55-0.7 1.21-0.83 1.24-0.85 1.11-1.4 1.76-0.43 0.49-0.36 0.47-0.39 0.48-0.83 1.24 0.02 0.11-0.1 0.17 0.14 0.01 0.02 0.1 0.2-0.09 0.18 0.01 0.19-0.16 0.05-0.02 0.13-0.14 0.43-0.38 0.47-0.55 0.41-0.43 0.86-0.98h0.02l0.54-0.64 1.86-2.79 0.86-1.11 1.65-2.48 0.81-0.97 0.72-0.81 0.1-0.15 0.41-0.62 1.68-1.68 1.24-0.52 0.57-0.51 0.08-0.96 1.42-0.28 0.41-0.62 0.85-0.44 0.03-0.25 1.21-0.94 0.34-0.33 0.7-0.54 0.07-0.29 0.65-0.8 0.59-0.39-0.07 0.29-0.08 0.28 0.09 0.23 0.01 0.29 0.34 0.33-0.91 0.18-0.49 0.24-0.51 0.77 0.05 0.93 0.15 0.1 0.31 0.88 0.38 0.02-1.19 1.31-0.07-0.35-0.41-0.05-0.31 0.47v0.67l0.16-0.04-0.63 0.87v-0.47l-0.41-0.05-0.64 0.8-0.16 0.56 0.52-0.1 0.3-0.23-0.29 0.44-0.16 0.57 0.52-0.11 1.21-1.31 1.55-1.66 0.36-0.4 0.07 0.38h0.67l0.47-0.36 0.14-0.21 0.09 0.03 0.18-0.44 0.67-0.67 0.16-0.57 0.77-0.15 0.47-1.04 0.88-0.68 0.06-0.02 0.19 0.34-0.02 0.54-0.57 1.19-0.47 0.36-0.05 0.42-0.59 1.05-1.19 0.11-0.26 0.72-0.67 0.67-0.16 0.57-0.02 0.54-0.67 0.67-0.97 1.16-0.02-0.02-0.1 0.15-1.19 1.45-0.72 1.08-1.19 1.45-0.03 0.54 0.91-0.18 0.1-0.15v-0.02l0.1-0.17 0.01 0.03 0.32-0.6 0.19-0.31 1.06-0.61 0.03-0.04 0.33-0.17 1.53-1.78 0.85-1.11-0.05-0.26 0.26-0.05 0.07-0.28 1.01-1.01 1.19-0.77 0.13-1.37 0.26-0.05 1.06-1.42 0.51-0.78 0.08 0.39-0.36 0.88-0.34 1-0.85 1.11-1.03 1.55-0.86 1.11 0.06 0.26-0.26 0.05-1.71 2.22 0.05 0.26-0.25 0.05 0.05 0.26-0.26 0.05-0.72 1.09-0.28 0.33h-0.06l-0.85 1.11 0.05 0.26-0.26 0.05-0.52 0.78-1.18 1.44-1.06 1.42-0.86 1.11 0.05 0.26-0.25 0.05-1.27 1.73-0.85 1.11-1.58 2.19 0.08-0.28 0.21-0.31-0.08-0.39-0.31 0.47-1.11 1.83 0.26-0.05 0.01-0.01-0.01 0.02v-0.01l-0.11 0.15-0.98 1.14-1.06 0.75-0.01 0.03-0.45 0.33-0.44 0.49-0.04 0.07-0.39 0.47-0.01-0.05-0.54 0.64-0.05 0.06-1.07 1.11-1.98 1.47-0.16 0.56 1.24 0.16 0.44 0.18-0.72 1.09-0.86 1.11 0.05 0.25-0.36 0.21 0.31 0.21 0.08 0.38-0.47 1.04-0.15 0.56-0.26 0.06-0.85 1.11 0.05 0.25-0.26 0.06-0.08 0.28-0.82 1.24 0.36 0.46 0.64-0.13 0.57-0.51 1.37-1.89 0.91-0.18 1.49 0.11 1.04-0.21 0.46-0.36 0.02-0.07 0.29-0.26h0.03l0.16-0.15 0.07-0.04v-0.03l0.34-0.3 1.65-1.81 1.57-1.52 1.92-1.86 1.03-1.55 0.19-0.33 0.02 0.02 0.49-0.9 0.82-1.24 0.11-0.15 0.42-0.49h0.02l0.98-1.14 1.6-1.39 1.91-1.19 1.14-1.03 1.21-1.99 0.99-2.48 1.13-0.36 0.31-0.46-0.28-0.75 0.28-0.6 0.73-1.08 0.82-0.57 1.14-1.03 0.19-0.15-0.03 0.46 0.39-0.08 0.83-1.24v-0.06l0.48-0.38-0.03 1.22-0.11 0.09-0.15-0.04-0.2 0.31-0.93 0.72-0.42 0.62 0.34 0.34-0.03 0.54 0.49-0.23 0.42-0.62 0.46-0.36 0.6-0.39-0.47 1.03-0.63 0.81-0.01-0.01-0.86 1.11-1.39 1.76-0.53 0.91-0.09 0.02-0.08 0.28-0.75 0.96-0.15 0.56 0.51-0.1 0.08-0.28 0.47-0.36 0.18-0.44 0.54-0.65 0.73-0.95 0.56-0.65 1.09-1.29 1.11-1.16 1.65-1.81 1.27-1.06 0.59-0.38-0.44 0.49-1.21 1.99-0.86 1.11-1.16 1.57-1.08 1.29 0.04 0.2-0.09 0.08-0.16 0.03-0.22 0.26-0.12 0.08-0.26 0.33-0.12-0.26-0.24 0.18-0.14 0.2-0.3 0.29-1.45 2.04-0.46 0.49-0.49 0.24-0.59-0.29-0.11-0.51 0.5-0.24-0.21-0.36-0.65 0.8-0.85 1.11-0.03 0.54 0.57-0.51 0.54 0.02 0.06 0.26-0.18 0.44-0.42 0.62 0.05 0.26h0.14l-0.35 0.63-0.3 0.37-1.3 1.37-0.82 1.24-0.83 0.57-0.41 0.62-0.54 0.64-0.81 0.03-0.1-0.52 0.26-0.05-0.05-0.26 0.26-0.05 0.15-0.57 0.26-0.05 0.08-0.28 0.54-0.65-0.05-0.25 0.26-0.06 0.8-0.69 0.05-0.06 0.52-0.46 0.31-0.46v-0.14l0.07-0.15-0.07-0.16v-0.23h-0.11l-0.05-0.1-0.27 0.1h-0.25l-0.23 0.19-1.44 1.49-0.53 0.94-0.5 0.68-0.42 0.55-0.02 0.05-0.09 0.11-0.32 0.33h-0.01l-1.11 1.16-0.75 0.96-0.7 1.21-0.65 0.8-0.8 1.37-0.04 0.16-0.37 0.46 0.05 0.26-0.26 0.05-0.54 0.64-0.15 0.57-0.26 0.05-0.18 0.44 0.05 0.02-0.03 0.11 0.13-0.09 0.13 0.04 0.25-0.28 0.09-0.06 0.76-0.89 1.54-1.71 0.59-0.39-0.23 0.85-0.53 0.71-0.02-0.06-0.13 0.26-0.38 0.51-0.85 1.11-1.06 1.42-0.03 0.54 0.39-0.07 0.44-0.49 0.74-0.74 0.78-0.37 0.34-0.34 0.02-0.54 0.49-0.9 0.31-0.47 0.42 0.05 0.75-0.28 0.38-0.75 0.83-0.57 1.03-1.55 0.86-1.11 0.36-0.87 0.15-0.57 0.86-0.44 0.75-0.96 1.13-1.03 0.88-1.65 0.57-0.52 0.83-0.56 0.2-0.31 0.13-0.7 1.16-0.9 1.32-1.47 1.09-1.29 0.93-0.73 0.88-0.98 0.85-0.44 0.15-0.56h1.35l-0.37-1.14 1.4-0.41 0.28 0.07 0.52-0.77 0.85-0.44 0.42-0.62 0.93-0.72 0.05-0.41 1.03-0.21 0.03 0.13-1.06 0.75-0.08 0.28-0.75 0.96-0.13 0.69-1.03 0.21-0.31 0.47-0.54 0.64 0.05 0.26-0.26 0.05 0.05 0.26-0.39 0.08-0.44 0.49-0.51 0.77-1.09 1.29-0.72 0.41-0.13 0.7-1.32 1.47-0.67 0.67 0.05 0.26-0.26 0.05-0.44 0.49-1.11 1.16 0.05 0.26 0.55 0.03 0.82-0.57 0.86-1.11 0.98-1.14 1.24-1.18 1.75-1.96 0.8-0.7 0.65-0.8h0.51l-0.11 0.13-1.4 1.75-1.19 1.45 0.05 0.26-0.25 0.05-1.4 1.75-1.5 1.91-0.85 1.11-1.06 1.42-1.19 1.45 0.05 0.26-0.25 0.05-1.37 1.88-0.7 1.21 0.36 0.47 0.64-0.13 0.99-1.14 1.47-2.03 1.68-2.35 0.85-1.11 0.93-1.4 0.41-0.52 0.51-0.4 0.02-0.31 0.49-0.74 0.6-0.12 0.93-0.72-0.02 0.54-0.98 1.81-0.81 0.7-1.24 1.18 0.42 0.06 0.69-0.55-0.05 0.42-1.39 1.75-1.81 1.71-0.44 1.16-0.98 0.46-0.7 1.22-1.32 1.47-1.75 2.63-0.7 0.54-0.31 0.47-0.11 0.26-0.28 0.48 0.01 0.18-0.16 0.39 0.15 0.78-0.65 0.8-0.67 0.67-1.26 0.38-0.86 1.11-0.64 1.48v0.67l0.38-0.08 1.22-0.64-0.13 0.69-1.68 2.35-1.09 1.29-1 1.01-1.27 1.06-1.57 1.52-1.4 1.75-0.36 0.88 0.02 0.03-0.1 0.26-0.59 1.05-0.65 0.13-0.72 0.42-1.27 1.72 0.05 0.93-0.41 0.62-0.31 0.47-0.3 0.52-0.81 1.31-0.31 0.47-0.29 0.57-0.1 0.17-1.24 1.19-0.26 0.72-2.01 0.67-0.36 0.21-1.22 1.32-0.8 1.37-1.14 0.36-0.23 0.18-1.76 2.63-1.03 1.55-0.15 0.57-0.26 0.05-0.34 0.6-0.45 0.59-1.23 0.82-0.85 1.11-1.52 1.78-3.31 4.96-0.16 0.57-0.26 0.05-0.59 1.06-0.41 0.62-0.1 0.26-0.19 0.33 0.07 0.01-0.04 0.12 0.21-0.1 0.18 0.02 0.98-1.13 0.24-0.34 0.4-0.46 0.65-0.89 0.1-0.07 0.62-0.93 1.53-1.78-0.39 0.75-0.44 0.83-0.26 0.38 0.04 0.04-0.22 0.4-0.72 1.09-0.16 0.56-0.26 0.06-0.38 0.74-0.24 0.86 0.42 0.05 1.31-1.47 1.4-1.76 2.12-2.17 1.24-1.18-0.08 0.28-0.57 1.19-0.22 0.58-0.14 0.3 0.01 0.01-0.27 0.71-0.83 1.24-0.9 1.52-0.7 1.21-0.67 0.67v0.68l-0.65 0.12-0.44 0.49-0.51 0.78-0.04 0.27-0.17 0.04-0.7 1.21 0.24 0.49 0.64-0.13 0.34-0.33 0.05-0.08 0.85-0.77 0.54-0.65 0.52-0.77 0.78-0.83 1.75-2.63 0.16-0.57 0.26-0.05 0.87-0.98 0.52-0.65h0.03l0.45-0.61 0.4-0.5-0.15 0.39-0.03 0.05-0.02 0.08-0.24 0.65-0.67 1.34-1.06 1.42-1.42 1.62-0.65 0.8-0.88 0.98 0.05 0.26-0.25 0.05-0.83 1.24-1.81 1.71 0.1 0.51 0.52-0.1 0.96-0.59 1.62-1.27 1.55-0.98 1.01-1.01 0.65-1.47 1.03-0.87 0.67-0.68 1.06-1.41 1.22-0.65 0.75-0.95v-0.03l0.1-0.13-0.05-0.26 0.05-0.41 0.54-0.65 0.6-1.05 0.85-1.11 0.52-0.78 0.95-0.59 0.13-0.7 0.85-0.44 0.03-0.54 0.39-0.08 1.34-1.34 1.21-1.31 0.16-0.57 0.52-0.11 0.51-0.77 0.67-0.67 0.37-0.88 0.74-0.28 0.44-0.49 0.7-0.55 0.54-0.64 1.55-1.65 1.11-1.16 0.26-0.73 0.31-0.46 0.86-0.44 0.69-0.54 1.09-1.29 1.86-1.45 0.64-0.8 0.55-0.64 0.62-0.26-0.24 0.85 0.42 0.05 0.07 0.39 0.55 0.03 0.18-0.44-0.42-0.05-0.05-0.26 0.78-0.16 0.75-0.95v-0.67l-1.14 0.36-0.02 0.54-0.65 0.13 0.1-0.83 0.75-0.28 0.52-0.77 0.26-0.73 0.36-0.2 0.85-0.44-0.13-1.32 0.65-0.13 0.49-0.23 0.26-0.72 0.85-1.11 0.7-0.54 0.26-0.73 1.03-0.2 0.96-0.6v-0.67l0.18-0.44 1.18-0.77-0.07-0.39-0.42-0.05 0.06-0.41 0.44-0.49 0.59-0.39-0.05-0.26 1.19-0.1 0.23-0.85 0.77-0.16 0.83 0.11-0.05 0.41-0.54 0.64 0.01 0.01-0.12 0.15-0.22 0.18h-0.01l-0.8 0.7-0.08 0.28-0.57 0.52-0.72 1.08-0.57 0.52-0.23 0.18h0.11l-0.4 0.59-0.8 0.7-0.31 0.46-0.54-0.02-0.03 0.02h-0.1l-0.45 0.43-0.35 0.27-0.06 0.12-0.04 0.03-0.88 1.66-1.19 0.77-0.54 0.65-0.39 0.74-0.49 0.91-0.03 0.54 0.42 0.05 0.9-0.18 0.23-0.85 0.93-0.72 1.06-0.75 0.54-0.96 0.37-0.43 0.8-0.83 0.69-0.54 0.08 0.38-0.26 0.06-0.2 0.31-0.31 0.46-0.18 1.11-0.83 0.57v0.67h0.67l-0.08 0.28-0.7 0.55-1.03 0.2-0.18 0.44-0.93 0.05-0.46 1.03-0.86 1.11-0.46 1.04-0.23 0.85-0.68 0.67 0.08 0.39 0.57 0.15-0.23 0.85 0.2 0.37 0.78-0.16 0.41-0.62-0.28-0.75-0.11-1.18 0.37-0.21 0.15-0.57 0.62-0.26 0.16 0.78 0.43 0.18 0.62-0.26 0.09-0.08 0.28-0.13 0.03-0.14 0.2-0.17 0.1-0.02 0.1-0.16 1.71-1.55 1.01-0.33v0.67l-0.62 0.26-0.21 0.31-0.16 0.57-0.72 0.41-0.82 1-0.06-0.02-0.31 0.46v0.68h0.67l-0.07 0.28-0.47 0.36-1.08 1.29-0.57 0.52-0.54-0.03-0.2 0.08-0.32 0.02-0.21 0.31 0.08 0.39-0.03 0.52-0.27 0.35-0.81 0.96-0.88 0.98 0.02 0.81 0.31 0.2h0.07l0.53 0.29 0.05 0.25-0.23 0.18-0.18 0.44-0.11 0.16-0.36 0.28h-0.12l-0.03-0.18-0.47-0.31-0.54-0.02-0.31 0.46 0.15 0.77 0.49 0.44-0.05 0.42-1.19 0.77-2.11 1.5-0.73 1.08-0.59 0.39-0.21 0.31-0.31 1.13-1.03 0.88-1.16 1.58-0.13 0.69 0.41 0.06 0.67-0.68 1.14-1.03 0.59-1.06 0.85-0.44 0.91-0.85 1.32-1.47 1-0.33 0.05 0.26-0.37 0.7-1.1 1.33-1.52 1.79-1.09 1.29-0.88 0.98-1.52 1.78-1.32 1.47-1.31 1.51-0.45 0.45-0.49 0.68-1.31 1.69-1.53 1.78-0.15 0.57 1.11-0.49 0.85-1.11 0.96-1.26 0.42-0.42 0.95-0.79 1.29-1.6 0.88-0.31 0.12-0.7 0.26-0.05 1.58-1.53 1.06-1.42 0.7-0.54-0.03 0.55-0.54 0.64-0.86 1.11-1.06 1.42-0.67 0.67-0.36 0.88-0.65 0.8 0.06 0.26-0.47 0.36-0.85 1.11-1.14 1.7-0.7 0.95-0.59 0.65-0.4 0.74-0.32 0.39-0.44 0.45-0.49 0.9-0.55 0.65-0.94 1.26h-0.01l-0.11 0.16-0.51 0.77-0.03 0.54 0.26-0.05 0.23-0.27 0.11-0.07 1.18-1.44 0.11-0.14 0.54-0.66 1.06-1.42 0.2-0.26 0.44-0.54 0.96-1.27 0.44-0.51 1.32-1.45 1.06-1.42 0.85-1.11 1.16-1.57 1.19-1.45 1.37-1.88 1.32-1.47 0.44-0.49 1.26-1.73 0.88-0.98 1.47-2.04 0.83-0.57 0.39-0.75 0.85-1.11 0.5-0.66 0.04 0.02 0.71-0.95 0.59-0.65 1.39-1.76 0.98-1.13 0.65-0.8 0.54 0.02 0.52-0.77 0.75-0.29 0.05-0.6 0.2-0.58 0.42-0.53 0.45-0.52 0.04-0.01 1.09-1.29 1.78-1.83 1.1-1.23 0.81-0.63 0.26 1.29-0.8 0.7-1.17 0.9-0.51 0.77 0.54 0.03 1.16-0.9 0.3-0.22 0.06 0.01 0.93-0.72 0.6-0.39 1.13-1.03 0.39-0.08-0.02 0.54-0.83 1.24-0.8 0.7-0.34 0.33-0.7 0.55-0.46 0.36-0.52 0.77-0.85 0.44-0.13 0.7 0.29 0.08 0.23-0.19 1.11-0.49-0.18 0.44-1.14 1.04-1.34 1.34-0.16 0.57h0.67l0.03 0.13-0.67 0.67-0.42 1.29h-0.67v-0.67l0.11-0.16-0.03-0.13 0.08-0.28-0.12 0.09-0.01-0.07-1.03 0.88-0.03 0.54 0.54 0.03 0.18 0.9-0.09 0.75-0.2 0.15-0.07-0.02-0.1 0.16-0.08 0.95-0.36 0.21 0.1 0.51 0.65-0.12 0.2 0.36 0.55 0.02 0.05-0.41 0.59-0.39-0.1-0.51 0.39-0.08 0.07-0.12 0.16-0.06 0.01-0.18 0.07-0.11v-1.34l0.93-0.05 0.8-0.02 0.64-0.8 0.49-0.91 0.6-0.38 0.1-0.16 0.21-0.31 0.36-0.21 0.39-0.07 0.15 0.1h0.67l0.16-0.57 0.21-0.59 0.15-0.17 0.5-0.19 0.58 0.13 0.55-0.65 1.57-1.52-0.05 0.41-0.65 0.8-1.39 1.76-0.1 0.82-0.06 0.42-0.57-0.16-0.12 0.07-0.13-0.02-0.06 0.13-0.05 0.03v0.1l-0.07 0.18 0.06 0.32-0.01 0.61-0.57 0.52-0.47 0.36-0.02 1.21-0.49 0.23-0.39-0.59-0.54-0.03-0.31 1.14 0.36 1.14-0.44 0.49-0.62 0.25-0.18-0.23h-0.67l-0.34 0.34v0.04l-0.1 0.11-0.06 0.31-0.02-0.02-0.05 0.41-0.49 0.23 0.07 0.01-0.31 0.17 0.06 0.26-0.26 0.05-0.62 0.93-0.83 0.57-0.21 0.31 0.16 0.77-0.83 0.57-0.83 1.24-1.08-0.05 0.18 0.9-1.11 1.16-0.49 0.91-1.06 0.75-0.18 0.43-0.65 0.8-1.03 1.55v0.67l0.88 0.37 0.64-0.13 0.47-1.04 0.54-0.64 0.13-0.7 1-0.3 0.43-0.04 0.4 0.11 0.34 1.01-0.11 0.15-0.15 0.57 0.52-0.1 0.54 0.02 0.23 0.49-0.44 0.5-0.67-0.01-0.49 0.74-0.62 0.43-0.08 0.28-0.15 0.57 0.23 0.49-0.03 0.54-0.77 0.16-0.15 0.08-0.11-0.03-0.1 0.15 0.15 0.78-0.39 0.07-0.15-0.77-0.52 0.1-0.08 0.29 0.16 0.77-0.88 0.98 0.05 0.26-0.26 0.05-0.54 1.32-0.83 0.57-1.03 0.87-0.05 0.42 1.52-0.44-0.18 0.44-1.03 0.87-0.05 0.42 0.28 0.08 0.05 0.25-0.9 0.18 0.13-0.69 0.02-0.55-0.38 0.08-0.11 0.16-0.57 0.51-0.31 0.47-0.87 0.31 0.1 0.51-0.62 0.26-0.49 0.9 0.67 0.01 0.13 0.64 0.75-0.28 0.38-0.75 0.68-0.67 0.87-0.31 0.21 0.36-0.52 0.1-0.77 0.83-0.31 0.46-1.06 1.42-1.19 0.78 0.21 1.03-1.06 1.42-0.65 0.13-0.15-0.11 0.18-0.43 0.02-0.55-0.49 0.24-0.02 0.54-0.26 0.05-0.83 1.24-0.13 0.7 0.65-0.13 0.23-0.86 0.85-0.43 0.29 0.74 0.26-0.05v-0.08l0.59-0.3 0.15-0.57 0.39-0.08 0.65-0.13-0.13 0.7-0.73 0.41v0.67l-0.69-0.13-0.93 0.06-0.03 0.54 0.83 0.1 0.07 0.39-0.49 0.9-0.93 0.72 0.11 0.52 2.04-1.21 0.28-0.6 0.47-0.36 0.13-0.69 0.36-0.21 0.36-0.21 0.54-0.64 0.6-0.39 0.02 0.8 0.39-0.08 0.36-0.87 1.32-0.8 0.02-0.55-0.33-0.33-1.01 1.01-0.02-0.81 0.33-0.33 0.54-0.65 1.24-1.18 1.48-1.37 0.87-0.98 0.03-0.54-0.57-0.16v-0.67l0.26-0.05 0.26 0.62 1.03-0.21 0.54-0.64 0.62-0.26 0.44-0.49 0.52-0.78 0.52-0.1 0.07 0.39-0.3 0.34-0.03-0.01-0.1 0.16-0.26 0.72 0.46 0.31 0.1 0.52-0.51 0.1-0.21-0.36-0.39 0.08-0.85 1.11 0.21 0.36 0.54 0.02-0.02 0.45-0.63 0.35-0.23-0.49-0.62 0.26 0.23 1.16-0.46-0.31-0.54-0.02-0.8 0.69-0.03 0.55 0.31 0.2 0.15 0.78-0.18 0.44-1.16 0.23 0.1 1.19-1.06 0.07 0.03 0.8-0.72 0.42-0.05 0.06-0.19 0.12-0.22 0.4-0.29 0.37v0.14l-0.08 0.15 0.09 0.22 0.01 0.29 0.47 0.31 0.09-0.02 0.19 0.1 0.05 0.26-0.87 1.08-0.11 0.05-0.31 0.47-1.68 0.33v0.67l-0.26 0.06v0.67l-0.77 0.15-0.18 0.44v0.37l-0.05 0.04 0.05 0.08v0.18l0.33 0.34-0.28-0.08h-0.67l-0.03 0.54-0.44 0.49-0.57 0.52-0.23 0.85 0.52-0.1 0.33-0.34 0.6-0.39 0.2-0.3 0.91-0.19 0.44-0.49 0.02-0.89 0.37-0.67 0.27-0.15 0.86-0.07 0.36 0.47 0.49-0.23v-0.02l0.37-0.19 0.2-0.31 0.91-0.85-0.01-0.03 0.34-0.31 0.47-0.36 0.41 0.73 0.26-0.06-0.31-0.87 0.59-0.39 0.01-0.03 0.22-0.15-0.05 0.41 0.16 0.78 1.21 0.02 0.08 0.39-0.21 0.31 0.36 0.47 0.62 0.41 0.75-0.29 0.09 0.44-0.24 0.13-0.08 0.29-0.54 0.64-0.42-0.05-0.1-1.19-0.93 0.05-0.52 0.78-0.8 0.02-0.02 0.54-0.52 0.11-0.21 0.58-0.33 0.06-0.31-0.2-0.47 0.36-0.31-0.21-0.49 0.23 0.21 1.04h0.67l0.21 0.36-0.37 0.21-0.02 0.54 0.85 0.23 0.18-0.44 0.65-0.8 0.64-0.13 0.23 0.49-0.9 1.53-1.19 0.77-0.28-0.75-0.39 0.08-0.21 0.31 0.78 0.52 0.08 0.38-0.24 0.18-0.59 1.06-0.72 0.41-1.04-0.46-0.13-0.65-0.28-0.07-0.39-0.6-0.49 0.23v0.68l-0.8 0.02 0.31 0.88-0.75 0.28-0.02 0.55-0.26 0.05-0.9 0.85-0.1 0.82 0.54 0.03 0.31-0.47 0.83 0.11-0.13-0.65 0.88-0.31 0.05 0.26 0.51-0.1 0.08-0.29-0.23-0.49 0.9-0.18 0.16 0.11 0.15 0.77-0.49 0.23-0.1 0.83 0.77-0.15 0.16-0.57 0.46-0.36 0.57-0.52 0.29-0.59 0.64-0.13 0.41-0.62 0.16-0.57 0.39-0.08 0.8-0.69 0.36-0.88 0.88-0.98 0.93-0.73 0.41-0.62 1.19-1.44-0.05-0.26 0.26-0.05 0.67-0.67 0.72-0.96h0.03l0.31-0.46 0.9-0.85 1.06-1.42 1.11-1.16 0.73-1.09 0.73-0.85 0.58-0.62 0.03-0.07 0.08-0.08 0.41-0.62 0.34-0.45 0.71-0.86 0.81-0.81 0.46-0.56 0.08-0.08 0.27-0.3 0.07-0.04 0.07-0.1 0.81-0.88 0.49-0.23v0.67l-1.09 1.29-0.51 0.77-0.55 0.65-1.39 1.75-0.52 0.78-0.65 0.8-0.87 1.65-0.37 0.21-0.41 0.62-0.15 0.56-0.39 0.08-1.09 1.29-0.38 0.75 0.54 0.03 0.67-0.68 1.19-0.77-0.05-0.93 0.62-0.26 0.15-0.57 0.7-0.54 0.06-0.12 0.04-0.03 0.52-0.78 0.54-0.64 0.13-0.7 0.78-0.15 0.25-0.73 0.52-0.77 0.88-0.98 0.93-1.39 0.7-1.22 0.75-0.95 1.03-0.88 0.23-0.18 0.71-0.95 0.58-0.65 1.32-0.13 0.21-0.31 0.15-0.57 0.26-0.05 2.3-1.93 2.38-1.97h0.05l0.57-0.51 1.8-1.71 0.19-0.19 0.05 0.01 1.21-1.31 0.31-0.34h0.03l0.08-0.12 1.67-1.84 0.01-0.01 0.43-0.48 1.22-1.32 2.48-2.37 1.94-1.73 0.47-0.2 0.04 0.1 0.03 0.13-0.26 0.5-0.36 0.43-0.07 0.23-0.04-0.08-0.05 0.41-0.26 0.06-0.38 0.74v0.05l-0.19 0.39-0.12 0.7-1.17 0.23-0.2 0.31 0.2 1.03-0.75 0.96-0.44-0.18h-0.67l-0.2 0.31 0.36 1.13-0.65 0.8-0.98 1.14-0.88 0.31-0.18 0.44-0.18 0.44-0.62 0.26-0.31-0.21-0.46 0.36 0.25 0.62 0.16 0.77-0.26 0.06-0.57 0.51-1.11 0.49-0.28 0.6-0.55 0.64-0.02 0.54 0.49-0.23 0.83-0.57 0.86-0.99 0.63-0.58 0.52-0.44 0.53-0.53 0.04 0.01 0.77-0.82 0.34-0.34 1.11-1.16 1.34-1.34 0.19-0.44 0.1-0.15v-0.1l0.08-0.19 0.64-0.8 0.67-0.67 1.01-0.33 0.18 0.9-0.15 0.57-0.13 0.69-0.26 0.06-0.44 0.49-0.83 0.56-0.41 0.62-0.03 0.55 0.75 0.38 0.03 0.8-0.42-0.05-0.18-0.23h-0.67l-1.01 1.01-1 1-1.19 1.45 0.13 0.64-1.76 0.62-0.93 0.73-1.01 1-1.18 1.45-0.86 1.11-0.98 0.46-0.59 0.39-0.39 0.75-0.85 1.11-1.53 2.45-0.15 0.57-0.26 0.05 0.05 0.26-0.36 0.2-0.57 0.52-1.16 0.9-1.29 1.6-1.53 1.78-1.44 2.17-0.16 0.57-0.26 0.05-0.59 1.06-0.91 1.52-0.13 0.7 0.26-0.05 0.11-0.12 0.12-0.06 0.91-1.12 0.28-0.33 0.11-0.15 1.57-2.2 0.91-0.85-0.47 1.03-0.77 1.5-0.57 1.19-1.09 1.96 0.31 0.21 0.65-0.8 0.82-0.57 0.06 0.26 0.9-0.18 0.42-0.5 0.88-0.78 0.51-0.43 0.01-0.07 0.09-0.08 1.16-0.9 0.47-0.5 0.21-0.18 0.1-0.15 0.72-0.41-0.2 0.98-0.16 0.57-0.26 0.05-0.54 0.64-0.1 0.83-0.47 0.36-1.13 1.03-0.26 0.73-0.55 0.64-0.85 1.11-0.23-0.49-0.47 0.36-0.15 0.57 0.39-0.08-0.16 0.57-0.85 1.11 0.13 0.65 0.15 0.1 0.62-0.26 1.79-1.83 3.12-3.18 1.42-1.62 1.37-1.89 0.16-0.56 0.25-0.06-0.05-0.25 0.26-0.06-0.05-0.25 0.26-0.05 0.83-1.24 0.94-1.27h0.01l0.67-0.67 0.57-0.52 0.67-0.67 0.91-0.85v-0.06l0.1-0.09 2.27-2.07 0.75-0.28-0.13 0.7-1.06 1.42-1.19 1.44-1.24 1.86v0.67l0.39-0.08 2.2-1.78 1.44-1.49 1.19-1.45 0.73-1.08 0.85-1.11 1.11-1.84 0.98-1.13 0.49 0.44 0.62-0.26 0.16-0.57-0.57-0.15 0.05-0.42 0.53-0.64h0.01l0.44-0.49 0.09-0.16 0.42-0.5 0.03 0.01 0.9-1.03 1.2-1.27 0.41-0.49h0.03l1.08-1.29 0.06-0.1 0.04-0.05 0.54-0.65h0.01l0.35-0.44 0.29-0.36 1.4-1.75 0.98-1.14 0.44-0.49 1.12-1.4 0.17-0.2 0.88-0.98 0.53-0.61 0.79-0.86 0.74-0.83h0.03l0.54-0.64 0.42-0.62 0.93-0.72 0.02-0.55 0.44-0.49 0.99-0.46 0.05-0.41 0.46-0.36 0.44-0.5-0.13-0.64-0.28-0.08 0.31-0.46 0.08 0.38h0.67l0.39-0.74 0.72-0.42 0.02-0.54 0.5-0.23 0.13-0.21 0.1 0.03 0.28-0.6 0.6-0.38 0.69-1.22 0.37-0.2 0.12-0.16 0.11-0.02 0.41-0.62 0.08-0.96 0.62-0.26 0.31-0.46 0.7-0.54 0.02-0.2 0.3-0.06 0.23-0.18 0.43-0.03-0.13 0.7-0.62 0.93-0.1 0.15-0.92 1.26-0.62 0.8-0.07 0.01-0.31 0.46-0.54 1.32-0.07 0.25-0.16-0.07-0.31 0.47v0.67l0.28 0.18 0.26 0.51-0.46-0.31-0.14-0.01-0.3-0.17-0.49 0.24-0.39 0.74 0.23 1.17-0.62 0.25-0.08 0.11-0.15 0.08-0.18 0.32-0.24 0.29 0.04 0.08-0.11 0.21-0.6 1.06-0.44 1.16v0.67l0.65-0.13 0.28 0.08-0.01 0.07h-0.01v0.01l-0.19 0.9 0.04 0.05-0.01 0.08 0.08 0.01 0.07 0.09 0.11-0.07 0.15 0.02 1.01-1.01 0.13-0.69 0.39-0.08 0.04-0.03-0.06 0.11-0.52 0.77-0.15 0.57 2.35-2.35 0.23-0.2-0.21 0.79-0.78 1.5-0.31 0.47-0.31 1.13-0.93 0.05-0.34 0.34-0.38 0.52-0.36 0.43-0.11 0.2-0.31 0.42-0.01 0.27-0.09-0.11 0.08 0.39 0.28 0.07 0.08 0.39-0.24 0.18-0.61 0.26-0.19-0.23-0.38 0.07-0.55 0.65-0.95 1.26-0.88 0.98-1.55 1.66-0.93 0.72-0.39 1.42-0.93 0.72-0.75 0.96-0.67 1.34 0.23 0.49 0.73-0.41 1.08-1.29 0.48-0.58 0.92-1.05h0.02l2.3-2.61 1.66-1.8 0.82-0.79 0.78-0.61 0.95-0.99 0.06-0.01 0.54-0.65 0.74-0.83 0.03 0.01 0.59-0.68 0.73-0.79 1.73-2.09 1.16-0.91 0.07-0.09 0.73-0.6 0.32 0.41 0.05 0.05h0.67l0.31 0.88 0.57 0.15 0.61-0.25 0.78-1.5 0.03-0.54-1.27 0.38 0.08-0.44 1.17-1.21 0.98-1.14 0.7-1.21 0.28-0.43 0.1 0.15 0.44 0.85 0.64-0.13 0.26-0.72-0.15-0.78-0.05-0.92-0.18-0.03 0.73-1.09 0.69-1.21-0.16-0.84 0.03-0.01 0.75-0.96 1.57-1.52 0.83-0.57 0.88-0.98 0.7-1.21 0.61-0.26 0.19-0.44 0.41-0.62 0.23-0.18 0.87-1.18 0.07-0.08h0.02l0.46-0.61 1.06-1.21 1.22-1.28 0.03-0.05 0.41-0.44 1.18-1.44 1.4-1.76 1.5-1.91 1.08-1.29 0.34-0.34 1.01-1 0.67-0.67 1.42-1.63 1.14-1.03 0.25 0.62 0.42-0.17-0.18 0.19-0.32 0.4-1.18 1.39-0.02-0.01-0.44 0.49-0.24 0.34-0.4 0.46-0.84 1.12-0.02-0.01-0.06 0.08-0.23-0.36-0.77 0.16-0.34 0.33 0.05 0.26-0.26 0.05 0.05 0.26-0.25 0.05 0.05 0.26-0.26 0.05-0.08 0.28-0.13 0.7 0.41 0.19-0.32 0.4-1.09 1.29-0.43 0.55-0.21 0.25-0.26 0.35-0.6 0.76 0.04 0.01-0.08 0.11-0.06 0.04-0.31 0.46-0.15 0.57 0.38-0.08 0.7-0.54 0.28-0.22 0.08 0.02 0.8-0.7 1.98-2.35 0.91-0.85 0.95-1.26v-0.14l0.06-0.07 0.81-0.7 0.07 0.39 0.55 0.02 0.28-0.59 0.13-0.7-0.44-0.18-0.05-0.26 0.18-0.15-0.01 0.18 0.59-0.39 0.42-0.62-0.13-0.08 0.16-0.25 0.25-0.29 0.03 0.16 0.26-0.05 1.11-1.16 1.42-1.63 1.76-1.96 0.8-0.7 1.08-1.29 0.6-0.38 0.9-0.86 1.11-1.16 0.8-0.69 0.16-0.57 0.49-0.23 0.49-0.24 0.18-0.44 0.93-0.72-0.13 0.7-0.96 0.59-0.13 0.7-0.54 0.64-0.85 1.11-0.54 0.65-1.24 1.19-0.46 0.57-0.31-0.21-0.64 0.13-0.11 0.15-0.36 0.88 0.13 0.63-0.97 1.07-1.42 1.63-4.39 4.9-1.08 1.29-1.22 1.32-0.39 0.75 0.37 0.46 0.49-0.23 0.59-0.39-0.03 0.55-0.33 0.33-0.85 1.11-0.31 0.47-0.73 0.41-0.13 0.7-1.5 1.91-1.39 1.75-1.19 1.45-1.42 1.62-1.19 1.45-1.5 1.91-1.19 1.44-1.73 2.09-1.55 1.66-1.39 1.75-1.19 1.45-0.09 0.11-0.25 0.22-0.79 1.07-0.16 0.2-0.28 0.34-0.06-0.01-0.85 1.11-0.72 1.09-0.54 0.64h-0.01l-0.64 0.8-1.27 1.48 0.04-0.09-0.31-0.2-0.34 0.33-0.06 0.11-0.04 0.05-0.02 0.06-0.42 0.76-0.26 0.39-0.03 0.13-0.25 0.46-0.01 0.16-1.48 1.68-0.98 1.13-3.05 3.57-1.08 1.29-0.7 0.54-0.21 0.98-1.24 1.19-0.8 1.36-0.51 0.78-0.03 0.54 0.93-0.72 0.62-0.26 0.1-0.83 1.42-1.62 0.13-0.7 0.31-0.46 1.01-1.01 1.09-1.29 0.87-0.98 1.86-2.12 1.27-1.73 0.57-0.51 0.27-0.34 0.18 0.05 0.28-0.59 0.02-0.06 1.73-2.11 1.21-1.31 0.88-0.31v-0.68l1.97-2.27 0.51-0.77 0.55-0.65 0.54-0.64 0.59-0.39 0.16 0.78 0.18 0.23 0.64 0.54 0.09 0.16-0.52 0.54-0.83 1.24-0.15 0.56-0.26 0.05-0.9 0.86-0.6 1.05-1.37 1.22-1.08 1.29-1.19 1.44-1.16 1.58-0.98 1.13-0.29 1.27-0.31 0.46-0.15 1.24 0.1 0.52 0.64-0.13 0.44-0.49 0.64-0.59 0.23 0.75-0.18 0.44-0.49 0.23-0.44-0.18-0.54-0.03-0.41 0.62 0.1 1.19 0.9 1.16 0.26-0.05 0.15-0.57 0.42 0.05 0.41 1.4 0.52 1.24h0.67l0.2-0.31 0.65-0.13 0.05 0.26 0.52 0.57v0.67l0.18 0.9 0.56 0.83 0.57 0.15 0.26-0.72-0.18-0.9-0.23-0.49-0.29-0.75 0.21-0.98-0.31-0.88-0.75-0.39-1.39-1.6-0.41-1.4-0.23-1.16v-0.67l-0.01-0.17 0.4-0.37 1.29-1.6 1.81-1.71 1.97-2.94 0.67-0.67 0.88-0.98 1.29-0.93 1.16-1.57 0.65-1.48 1.08-1.29 1.4-1.08 0.23-0.85 1.03-0.88 0.37-0.88 0.72-0.41 0.06-0.69 0.52 0.77 0.49-0.23 0.01-0.67-0.42-0.68 0.19-0.28 0.93-0.72 1.01-1.01 1.29-1.6 0.42-1.29 1.18-0.78 0.49-0.9 0.47-0.36 0.54-0.65 0.91-0.85 0.23-0.85 0.36-0.21 0.18-0.43 0.83-0.57 0.23-0.85 0.44-0.49 0.57-1.19 0.67-0.67 0.41-0.62 0.65-0.8 1.11-1.16 0.41-1.29 0.03-0.49 0.24-0.18h0.04l0.69-0.55 0.46-0.42 0.1-0.02-0.03-0.04 1.51-1.4 2.15-2.04 2.14-2.04 2.92-2.86 1.24-1.19 0.78-0.7h0.02l15.38-14.85 0.16-0.18 0.18-0.15 0.54-0.65 0.44-0.49 0.59-0.68 0.59-0.64 0.03 0.01 0.97-1.06 0.58-0.6 1.29-0.25 0.44-0.49 0.09-0.18 0.22-0.29 0.17-0.52 0.09-0.2 0.02-0.18 0.22-0.67 0.56-0.52 0.83 0.1 1.03-0.2 0.08-0.29-0.26-1.29 1.01-1.01 0.77-0.7h0.03l1.94-1.73 0.6-0.52 0.09-0.02 1.63-1.26 0.05-0.07 0.08-0.06 0.42 0.36 0.55 0.03 0.31-1.14-0.06-0.15 2.66-1.78 0.28-0.22 0.78-0.53 1.73-1.42 0.71-0.68 1.33-1.21 0.1-0.15 13.48-14.07 1.39-1.18 1.35-1.11-0.18 0.44-0.59 1.73-0.6 1.05-12.6 13.63-1.24 1.19-1.45 1.49-0.32 0.43-0.22 0.22-0.86 1.11-0.69 1.21-0.11 0.16-0.1 0.15-1.01 1.01-2.17 1.91v0.67l1.03-0.21 0.83-0.56 0.19-0.23 0.15-0.11 1.6-1.93h0.02l0.22-0.25 0.82-0.63 0.59-0.39 0.05-0.08 0.65-0.46 1.55-1.65 0.88-0.98 1.55-1.65 12.71-13.11 0.31-0.47 0.67-0.67 1.27-0.39 0.44-0.49 0.72-1.08 0.57-1.86 0.52-1.45 0.05-0.18 0.2-0.54 0.01-0.1 0.15-0.47 0.49-0.9 1.39-1.08 1.06-0.75 1.61-1.4-0.01-0.03 0.34-0.3 0.03-0.05 20.08-21.83 1.89-1.32 0.16-0.57-0.52 0.11-1.24 0.51-1.18 0.51-0.19 0.03-20.19 21.5-1.45 0.82-0.75 0.27 0.02-0.37 0.07-0.3 0.3-0.73 20.71-21.6 0.44-0.49 0.49-1.57-0.33-1.68-0.42-0.73-0.06-0.04-0.12-0.19-0.67-1.5 0.06-0.05 2.04-1.88 2.15-2.04 2.14-2.04 2.92-2.87 14.98-16.38 0.78-0.7h0.02l0.8-0.69 0.16-0.18 0.17-0.16 0.54-0.64 0.44-0.49 0.59-0.69 0.6-0.64 0.03 0.01 0.97-1.05 0.58-0.6 1.29-0.26 0.44-0.49 0.08-0.18 0.23-0.28 0.16-0.53 0.1-0.2 0.02-0.17 0.21-0.68 0.57-0.52 0.83 0.11 1.03-0.21 0.08-0.28-0.26-1.29 1.01-1.01 0.77-0.7h0.03l1.93-1.73 0.6-0.52 0.1-0.02 1.63-1.26 0.04-0.07 42.64-44.29 2.84-1.9 0.28-0.22 0.78-0.53 1.73-1.42 0.71-0.68 1.33-1.21 0.1-0.15 1.96-1.73 1.39-1.19 1.36-1.11-0.19 0.44-0.59 1.73-0.59 1.06-1.09 1.29-1.24 1.19-1.45 1.49-0.32 0.43-0.22 0.22-0.85 1.11-0.7 1.21-0.1 0.16-0.11 0.15-1 1.01-43.69 45.36v0.67l1.03-0.21 42.34-44.01 0.2-0.23 0.14-0.11 1.6-1.93h0.03l0.22-0.25 0.81-0.63 0.6-0.39 0.05-0.08 0.64-0.46 1.55-1.65 0.88-0.98 1.55-1.66 1.19-0.77 0.31-0.46 0.67-0.68 1.27-0.38 0.44-0.49 0.72-1.09 0.57-1.86 0.52-1.44 0.06-0.19 0.19-0.53 0.01-0.1 0.15-0.47 0.49-0.91 1.4-1.08 1.05-0.75 1.61-1.39-0.01-0.03 0.34-0.31 0.03-0.04 0.88-0.81 1.88-1.31 0.16-0.57-0.52 0.1-1.24 0.52-1.17 0.5-0.2 0.04-0.98 0.46-1.45 0.83-0.74 0.26 0.01-0.37 0.07-0.3 0.3-0.73 1.5-0.57 0.44-0.49 0.49-1.57-0.33-1.68-0.42-0.72-0.06-0.04-0.12-0.2-0.72-1.6-0.57-0.15-1.07-0.17-0.04-0.01-1.01-0.2-1.52-0.37-0.23-0.49 0.57-0.52 0.18-1.11-0.23-0.49-0.8 0.02-0.31 0.69-0.19 0.36-0.46 0.22-0.23-0.49-0.41-0.05-0.44 0.49-0.73 0.41-0.18-0.23-0.13-1.32 0.13-0.7-0.01-0.23 0.09-0.05-0.13-0.65-0.26 0.06-0.67 0.67-0.98 0.46-0.05-0.26-0.18-0.23-0.23-0.49-0.39 0.08-0.21 0.31-0.13 0.69-0.26 0.73-0.61 0.25-0.78-1.86-0.31-0.2-0.98-0.21-0.59-0.28-0.57-0.16 0.05-0.41 0.36-0.21 0.6-0.34 0.25-0.1 0.84-0.52 0.12-0.07 0.18-0.12 1.37-0.86 0.47-0.36 1.39-1.09 0.47-0.36 0.75-0.68 0.61-0.53 0.06-0.08 0.28-0.25 1.99-1.48 0.54-0.64 0.54-1.99 0.08-0.28-0.11-0.32-0.02-0.33-0.56-0.83-0.78-1.18-0.23-0.12-0.08-0.09-0.26-0.09-0.18-0.09-0.1-0.01-1.19-0.4-1.47-0.65-0.77-0.52-0.75-1.06-1.14 0.36-0.85-0.23-1.86-1.24-1.57-0.49-1.42-1.06-0.96-0.08-0.46-0.31-1.01-1-0.67-0.01-0.34 0.34-0.9 0.18-0.16-0.77-0.25-1.3-1.01-1-0.88-0.37-1.11-0.18-2.97 0.6-0.93 0.05-0.69-0.13-0.18-0.24 2.37-1.54 3.72-2.22 2.92-2.19 1.42-0.96 2.74-1.08 0.54-0.65v-0.02l0.1-0.13-0.15-0.78-0.31-0.2-1.21-0.03-0.91 0.18-0.36 0.21-2.3 0.59 0.13-0.7 0.21-0.17 0.02-0.01 1.5-1.24 3.67-2.47 1.01-0.76 0.05 0.01 1.39-1.09 1.22-0.64 1.08-0.62 0.03-0.54-0.65 0.13-0.99 0.52-1.33 0.61v0.01l-0.49 0.22-2.89 1.65-2.61 1.73-2.07 1.09-1.24 0.51-8.31 2.06-0.5 0.24-0.31 0.46-0.87 1.65-0.93 1.4-0.86 1.11-0.85 0.43-0.08-1.05 0.16-1.24 0.65-1.48 1.34-2.01 1.27-1.73 0.34-0.44 0.3-0.36 0.02-0.03 0.73-0.92 1.32-1.47 1.86-2.12 1.14-1.7 0.9-1.53 0.49-1.57 0.31-2.48 0.36-0.11 0.16 0.01 0.75-0.29 0.64-0.8-0.15-0.77-0.31-0.21-1.27 0.39-0.1-0.52-0.36-1.81-0.05-0.93 0.47-0.36 0.13-0.2 0.3-0.29-0.09-0.02 0.07-0.11-0.21 0.07-0.05-0.01-1.01 0.33-0.36-0.46-0.38 0.07-0.29 1.27-0.39 0.75-1.65 0.46-0.47-0.31-0.18-0.9 0.24-0.18 3.07-2.09 1.96-1.6 2.46-1.84 2.53-1.56 0.1-0.04 1.55-0.98 0.73-0.54 0.1-0.02 1.63-1.27h-0.01l0.24-0.18 2.06-1.75 1.92-1.86 0.99-1.01h0.01l2.12-2.17 0.78-0.57 0.05 0.01 0.5-0.42 0.66-0.49 0.02-0.02 0.21-0.16 0.07-0.12 0.04-0.03-0.02-0.01 0.09-0.17 0.24-0.29-0.02-0.1 0.09-0.18-0.02-0.8h-0.67zm-44.66-28.69l0.39-0.07 0.34 0.33 0.31 0.88-0.52 0.1-0.6-0.28-0.23-0.49zm-2.01 0.67l0.13-0.03 0.2 0.36-0.38 0.08zm-237.94 211.5l-0.49 0.9-0.75 0.29-0.08-0.39 0.41-0.62 0.16-0.57 0.64-0.13zm3.59-1.52l-0.31 0.46-0.54-0.02 0.41-0.62 0.39-0.08zm15.95-15.37l-0.62 0.26 0.15-0.57 0.39-0.07zm-33.58 60.23l-0.05 0.07-0.38-0.04-0.15 0.56 0.23-0.04-0.35 0.66-0.31 0.25 0.01-0.25-0.33 0.07-0.11-1.12 0.9-0.19 0.49-0.23c0 0 0.05 0.26 0.05 0.26zm0.96-1.26l-0.03 0.03-0.07-0.34-0.23 0.18 0.05 0.25 0.22-0.04-0.41 0.61-0.28 0.26-0.29-0.75 0.31-0.36 0.65-0.23c0 0 0.08 0.39 0.08 0.39zm-5.7 33.35l-0.67 1.35h-0.67l0.05-0.42 0.85-1.11 0.39-0.07zm-18.05 46.15l-0.08 0.29-0.2 0.31-0.13 0.02-0.62 0.93-0.63 0.87-0.43 0.55-0.21 0.31-0.51 0.78-1.01 1 0.01-0.02 0.09-0.13-0.02-0.13 0.07-0.29 1.11-1.65 0.06 0.08 1.96-2.94 0.57-0.52zm1.95 0.69l-0.07 0.01-0.05-0.26 0.2-0.04zm1.92-1.46l0.05 0.26-0.77 0.16 0.37-0.75 0.27-0.05zm1.24-1.19l-0.64 0.13-0.47 0.36-0.08-0.39 0.55-0.64h0.67zm0.72-1.09l-0.26 0.05-0.05-0.25 0.26-0.06zm-0.1-0.51l-0.39 0.08 0.16-0.57 0.25-0.05zm6.64-10.46l0.14-0.2 0.2-0.13 1.55-2.33 0.85-1.11 0.64-1.05 0.5 0.02v0.67l-0.96 1.27-0.85 1.11-0.88 0.98-0.59 0.39 0.05 0.25-0.17 0.17-0.06 0.01-0.57 0.52zm6.15-4.18l-0.47 0.36-0.39 0.75-0.98 1.14-1.34 1.34-1.29 1.6-1.01 1-1.09 1.29-1.31 1.48-1.66 1.8-0.8 1.37-0.82-0.1 0.07-0.29 0.68-0.67 0.38-0.75 0.75-0.95 0.88-1.65-0.04-0.22 0.09-0.2 0.47-0.36-0.05-0.26 0.72-0.41-0.59 1.06 0.41 0.05 0.21-0.31 0.12-0.02 0.03-0.21 0.05-0.08 0.7-0.54 0.65-0.8 1.08-1.29 0.85-1.11 1.01-1.01 1.5-1.24 0.59-1.05 0.52-0.11c0 0 0.08 0.39 0.08 0.39zm-0.72-2.94l-0.08-0.39 0.83-1.24 0.25-0.05 0.03 0.8-0.39 0.75zm2.12 1.19l-0.08 0.28-0.62 0.26-0.28-0.75 0.44-0.49 0.38-0.08zm2.94 16.73l-1.37 1.89-0.03-0.8 0.44-0.49 1.04-0.88-0.16-0.04 0.08-0.08 0.31-0.06 0.44-0.49zm2.53-4.8l-0.64 0.13 0.07 0.38-0.33 0.34-0.49 0.23-0.11-0.51 0.26-0.06 0.59-0.38-0.1-0.52 0.62-0.26 0.05-0.08 0.24 0.16zm3.85-4.93l-0.55 0.65 0.07 0.02-0.02 0.02-0.15 0.11-0.54 0.65-0.05 0.24-0.03 0.04-0.12 0.09-0.14-0.04-1.03 0.88-0.57 0.52 0.21 0.56-0.06 0.21-0.9 0.18 0.49-0.9 1.06-1.42-0.03-0.06 0.11-0.13 0.15 0.01 0.76-0.84 0.25-0.17-0.02-0.1 0.33-0.36 1.14-1.04h-0.16l0.13-0.13 0.18-0.19-0.05 0.17 0.23-0.18 0.49-0.23zm-1.44 48.61l-0.72 0.42-0.08 0.28-0.39 0.75-0.05-0.26-0.01 0.08-0.11-0.3 0.01-0.11 0.14-0.21 0.36-0.21-0.01-0.04 0.24-0.14 0.1-0.82 0.49-0.24 0.08-0.28 0.13-0.1 0.21 0.44zm3.45 4.54l-0.14 0.22-0.14-0.3 0.23-0.18zm-1.49-7.49l0.13 0.65-0.13 0.03-0.13 0.02-0.8 0.03 0.03-0.55 0.36-0.2 0.43-0.54 0.06 0.31 0.41 0.05zm0.8 0.64l-0.27-0.03-0.04-0.17 0.26-0.05zm1.91 2.17l-0.35 0.52-0.35 0.02 0.08-0.96-0.65 0.13-0.2-1.03 0.2-0.2 0.19 0.12 0.18 0.9 0.8-0.02zm1.26-3.07l-0.3 0.44-0.42-0.03-0.23-0.49-0.45 0.55-0.2-0.42-0.64 0.8-0.39 0.08-0.13 0.02-0.08-0.39 0.65-0.12-0.03-0.71 0.4-0.14 0.01 0.1 0.88-0.31 0.16-0.33 0.62 0.17c0 0 0.15 0.78 0.15 0.78zm1.37-1.89l-0.58 0.25-0.06-0.12-0.03 0.01-0.18-0.37 0.26-0.05 0.54 0.03zm1.34 3.35l-0.02-0.13 0.04-0.04zm0.66-2.28h-0.04l0.02-0.41h0.04zm0.25-1.94l-0.51 0.16-0.08-0.44 0.1-0.08 0.41-0.02zm1.14 0.98l-0.03 0.01-0.41-0.19-0.05-0.23 0.41 0.02zm-0.41-2.06l-0.13 0.1-0.13-0.05 0.04-0.31h0.17c0 0 0.05 0.26 0.05 0.26zm1.37 0.8l-0.29 0.28-0.1-0.21 0.37-0.15zm0.13-0.7l-0.02-0.13 0.24-0.24 0.17 0.29zm29.67-15.45l-0.54 0.65-0.39 0.08 0.03-0.55 0.52-0.77-0.03-0.01 0.01-0.01 0.19-0.12h0.05l0.16 0.06zm0.58 1.26l-0.11-0.28 0.03-0.05 0.1 0.03zm-0.79-3.63l-0.07-0.39-0.55-0.03-0.1-0.18 0.03-0.21 0.41-0.51 0.57 0.72zm152.47-128.63l-0.21-0.05 0.28-0.3 1.21-1.31 0.29 0.07-0.72 1.09-0.11 0.15-0.22 0.45zm-0.64-2.51l-0.42 0.44 0.07-0.42-0.24-0.49-0.16 0.01 0.54-0.61-0.07 0.81zm-103.32 98.38l0.06 0.26-0.17 0.21 0.01-0.32-0.39 0.08-0.44 0.49v0.64l-0.36 0.24-0.09 0.34-0.37 0.02-0.18 0.23-0.44 0.03-0.96 1.26 0.13 1.32-0.21 0.31-0.95 0.59-1.35 1.35-1.62 1.93-0.47 0.36-0.23 0.18-0.52 0.78-1.19 1.44-0.04 0.02-0.14-0.25-0.49 0.23-0.04 0.14-0.09-0.11-0.35 0.07 0.61-0.79-0.04-0.03 0.6-0.72 0.42-0.39 0.51-0.62-0.07 0.13 0.39-0.08 0.27-0.27-0.14 0.25 0.54 0.02 1.29-1.6 2.17-2.58 0.93-0.72-0.13-0.65-0.25-0.07 0.75-0.83 1.42-1.63 0.55-0.6 0.56-0.56 0.06-0.12 0.12-0.13 0.05 0.07 0.28 0.08 0.03-0.54 0.21 0.36 0.07 0.01zm-4.66 4.95l-0.16 0.04 0.1-0.12zm-80.79-5.23l0.57 0.15-0.05 0.42-0.55-0.03zm-0.75 1.62l-0.02-0.12 0.12-0.05zm0.71-0.35l0.03 0.58-0.3-0.04zm3.76-10.19l0.26-0.05 0.93-0.06 0.33 0.34-0.31 0.47-1.03 0.2 0.03 0.13-0.8 0.03-0.24-0.5zm-1.18-0.9l-0.05 0.08-0.55-0.03 0.22-1.16 0.17-0.26 0.26-0.05 0.21 1.03-0.06 0.08-0.18 0.1zm1.89-4.85v-0.01zm-2.23-35.56l-0.14 0.09 0.12-0.18zm0.68 4.91l-0.14 0.49-0.1-0.52 0.29-0.06zm119.34 14.15l-0.11 0.83-0.74 0.28-0.08-0.17 0.01-0.01 0.74-0.83h0.03l0.14-0.15c0 0 0.01 0.05 0.01 0.05zm-3 3.82l-0.7 0.54-0.12-0.63 0.13-0.12-0.01 0.08 0.52-0.1-0.08-0.4 0.01-0.01 0.75-0.58 0.12 0.29zm-112.64 13.18l-0.39 0.07-0.08-0.38 0.26-0.05zm0.12-32.38l0.26-0.06 0.23 0.5-0.26 0.05zm41.27-86.99l0.45-0.51 0.37-0.08-0.18 0.44-0.59 0.39c0 0-0.05-0.25-0.05-0.24zm82.21-89.54l-0.52 0.78-0.2 0.29-0.05-0.71 0.26-0.05 0.44-0.49 0.94-0.99-0.02 0.06zm-4.55 4.65l0.27-0.3 0.04-0.01-0.01-0.04 0.74-0.84 1.01-1.01 0.88-0.98 0.66-0.04-0.28 0.43-0.11 0.15 0.05 0.25-0.1 0.17-1.06 1.42-1.63 1.26-0.54-0.02zm35 138.89l0.05 0.26-0.17 0.22 0.01-0.32-0.38 0.07-0.36 0.4-0.16-0.04 0.49-0.49 0.06-0.12 0.12-0.13 0.05 0.07 0.29 0.08 19.23-21.57-19 21.39 19.28-21.02zm19.7-21.93l0.08-0.28 0.02-0.09 0.05-0.05 0.21 0.21-0.08 0.2zm-171.72 82.05l-0.27-0.07 0.27-0.52 0.14-0.22 0.29 0.19-0.36 0.54zm112.1-10.17l0.05-0.01 0.03-0.03 0.09 0.47-0.62 0.26-0.06-0.15zm1.96-2.17l0.24-0.25 0.09 0.01-0.02 0.54-0.54-0.03zm-118.48-5.17l-0.21 0.04 0.14-0.22zm1.9 27.01l0.18-0.28 0.06-0.03 0.48-0.1 0.34-0.34 0.66-0.57 0.08-0.03-0.4 0.47-1.4 1.61-0.22-0.57 0.04-0.05zm-1.19-5.27l-0.2-0.36 0.12-0.03zm-3.85 14.33l0.13-0.03h0.67l-0.08 0.62-0.15 0.24-0.88-0.37zm3.98-2.94l0.15-0.57 0.19-0.03-0.15 0.37-0.17 0.21zm3.78-8.42l0.32-0.32 0.45-0.09-0.02 0.55-0.38 0.14-0.18-0.09-0.17 0.06 0.03-0.24zm108.95-13.77l-14.97 14.9-0.9 0.86-1.11 1.16-0.99 1.13-1.68 1.68-2.17 2.58-1.18 1.45-1.36 1.44 0.98-1.16 0.28-0.35 0.05 0.01 0.86-1.11 0.33-1 0.13-0.7-0.39 0.08-0.33 0.33 0.05 0.26-0.26 0.05-0.32 0.4-0.66 0.74-0.03 0.07-0.38 0.43-0.03-0.01-0.54 0.64-0.03 0.07-0.55 0.63-0.53 0.61 0.09-0.51h-0.67l0.08-0.28 0.77-0.83 1.79-1.83 2.01-2.01 0.75-0.96 0.24-0.25-0.26 0.33-0.67 1.34 0.23 0.49 0.73-0.41 1.08-1.29 0.48-0.58 0.92-1.05 0.02 0.01 2.3-2.61 15.45-15.11-14.5 14.31 14.84-14.21c0 0 0.05 0.26 0.05 0.26zm98.51-289.51l0.26-0.05-0.05-0.26 0.54-0.64 0.85-1.11 1.42-1.63 0.44-0.45 0.26-0.09 0.78-0.83 1.03-0.87-0.18 0.44-0.85 1.11-0.52 0.77-0.72 1.08-0.11 0.16 0.05 0.24-0.1 0.17-1.06 1.42-1.63 1.27-0.54-0.03zm-33.25 36.57l0.44-0.49 0.39-0.08-0.18 0.44-0.6 0.39c0 0-0.05-0.26-0.05-0.26zm-4.21 4.47l1.78-1.84 1.24-1.18-0.08 0.28-1.18 1.45-1.53 1.78-0.33 0.39-0.85 0.17zm-123.76 118.28l-11.64 12.52-0.75 0.83 0.47-0.71zm-12.52 13.5l-0.7 0.76 0.22-0.32zm-5.18 5.13l0.36-0.88 0.59-0.38-0.08-0.39 0.21-0.31 0.54 0.03-0.02 0.54-0.57 0.51-0.61 1.06-0.07 0.08-0.06 0.08-0.22 0.05zm-10.78 20.47l0.46-0.36 0.18 0.23-0.31 0.47-0.49 0.23zm0.98 1.55l-0.64 0.13-0.16-0.11 0.16-0.57 0.64-0.12zm1.09-1.29l-0.62 0.25 0.02-0.54 0.52-0.1c0 0 0.08 0.39 0.08 0.39zm-0.21-1.71l-0.39 0.08 0.31-0.47 0.26-0.05zm5.19-4.93l-0.46 0.36-0.08-0.38 0.21-0.31 0.26-0.05c0 0 0.07 0.38 0.07 0.38zm-36.81 66.25l0.21-0.31 0.41 0.05-0.05 0.42-0.49 0.23c0 0-0.08-0.39-0.08-0.39zm-4-5.24l0.26-0.05 0.08 0.38-0.36 0.21zm8.4 22.62l-0.46 0.37-0.05-0.26 0.13-0.03 0.12-0.25 0.1-0.11 0.11 0.03zm0.62-0.93l-0.46 0.36 0.02-0.54 0.39-0.08zm1.91-1.19l-0.1 0.16-0.03-0.13-0.1 0.15-0.59 0.39-0.18-0.23 0.12-0.7 0.78-0.15c0 0 0.1 0.51 0.1 0.51zm1.35-1.34l-0.21 0.31-0.65 0.13-0.25-0.62 0.31-0.47h0.67zm1.06-0.74l-0.08-0.39 0.21-0.31 0.25-0.05v0.67zm-2.57 26.82l0.88-0.3 0.26-0.27 0.34-0.12 0.04 0.22-0.13 0.23-0.59 0.22-0.51 0.77 0.13-0.02-0.88 0.31-0.21-0.36zm-11.8 0.07l1.5-1.91-0.04-0.01 0.17-0.2 0.1 0.03 0.44-0.49 0.08 0.38-0.15 0.09-0.11-0.04-0.1 0.16-1 1.27-0.4 0.48-0.05 0.09-0.05 0.07-0.07 0.15-0.16 0.28-0.29 0.34-0.59 0.39zm-2.7 17.45l-0.33 0.34-0.29-0.08 0.16-0.57 0.39-0.07zm1.91-1.19l-0.72 0.41-0.37 0.88-0.26 0.05-0.02-0.8-0.26 0.05-0.08-0.38 0.16-0.57 0.88-0.98 0.26-0.05 0.33 0.33 0.39 0.6zm8.81-10.35l-0.85 1.11-0.37 0.68-0.8 0.89-0.62 0.26-0.23-1.16-0.28-0.08-0.36-0.47-0.26 0.05-1.01 1.01-0.03 0.05-0.2 0.13 0.02 0.13-0.1 0.16-1.01 1-0.15 0.57-0.88 0.31-0.88 0.98-1.24 0.52-0.33 0.33-0.21 0.98-0.72-0.26-0.08 0.05-0.05-0.02-0.23 0.18-0.5 0.9 0.16 0.78-0.88 0.31-0.21-0.36 0.42-0.62 0.85-1.11 0.49-0.91-0.07-0.04 0.05-0.08 1.13-1.04 1.04-1.55 1.08-1.29 1.16-0.9 0.08-0.28 0.42-0.62-0.11-0.02 0.08-0.11 0.95 0.08 1.06-1.42-0.09-0.02 0.39-0.45 0.14-0.02 0.44-0.49 0.67-0.68v-0.02l0.44-0.47 0.19-0.28 0.16 0.01 0.3 0.14 0.72-0.41v-0.67l0.26-0.05 0.05-0.41 0.75-0.29 0.08-0.11 0.77-0.33v0.68l-1.34 1.34-0.59 1.06-0.57 0.51-1.47 1.37-0.03 0.54 1.01-0.33 0.23 0.49 0.52-0.11 0.23-0.16 0.13-0.04v-0.05l0.46-0.31zm-4.21 4.46l-0.49 0.23 0.03-0.54 0.51-0.1zm-2.66 2.81l-0.23-0.49 0.54 0.03zm8.01-8.98l-0.64 0.12h-0.68l0.16-0.56 0.93-0.73 0.08-0.28 0.59-0.39 0.21-0.31 0.9-0.85 0.26-0.05 0.26 0.62-0.34 0.33-0.13 0.7h0.67l-0.07-0.39 0.23-0.18 0.9-0.18 0.15 0.31-0.4-0.05-0.2 0.31 0.1 0.18-0.55 0.11-0.16 0.56-0.01 0.01 0.05-0.34-0.26 0.05-0.21 0.31 0.37 0.04-0.47 0.56-1.07 0.1-0.07-0.39 0.33-0.34 0.26-0.72-0.8 0.7zm-3.21 10.17l0.52-0.78 0.77-0.82 0.6-0.39 0.57-0.51 0.9-0.86 0.26-0.72 0.98-0.46 0.09 0.11 0.12 0.25 0.69 0.13 0.08 0.39-0.39 0.07-0.28 0.6-0.03 1.08-0.13 0.16-0.38 0.07-0.26-0.62-0.6 0.39-0.05 0.19-0.04 0.03-0.14-0.04-0.1 0.16-0.11 0.82-0.25 0.05-0.93 0.73-0.06 0.41-0.56-0.16-1.32 0.13zm0.23 6.54l-0.05-0.26 0.2-0.31 0.13-0.03 0.21-0.31h0.52l0.01 0.1 0.23-0.04 0.27 0.41-0.46 0.36zm40.68 30.28l-0.39 0.46-0.34-0.05 0.03-0.54 0.44-0.49-0.11-0.03 0.08-0.1 0.16 0.11c0 0 0.13 0.64 0.13 0.64zm-1.03-6.51l-0.36 0.53-0.13-0.29 0.43-0.49c0 0 0.06 0.25 0.06 0.25zm3.98 11.56l-0.08-0.17 0.09-0.05zm-1.89-13.26l-0.03-0.05 0.04-0.08zm11.37 2.5h-0.01l0.03-0.26 0.07 0.12zm7.45 2.76l0.13-0.37-0.1 0.36zm7.61-3.12l0.05 0.25-0.26 0.06 0.05 0.25-0.26 0.06-0.3 0.45-0.48 0.17 0.03-0.55 1.08-1.29 0.2-0.21 0.35-0.23-0.05 0.42-0.15 0.56c0 0-0.26 0.06-0.26 0.06zm8.13-14.59l-0.2 0.43 0.07-0.4-0.26 0.05-0.9 0.85 0.05 0.26-0.26 0.05-0.67 0.67 0.05 0.26-0.26 0.05-0.07 0.29 0.31 0.2 1.13-1.03 0.53-0.67-0.09 0.18-0.52 0.77-1.11 1.17-1.08 1.29-0.26 0.72-0.7 0.54-1.14 1.11-0.92 0.18-1.36 1.21-0.04 0.01 0.46-0.52 0.81-0.88 0.41-0.62 0.19-0.14 0.33 0.04 0.04-0.14 0.06-0.02 0.1-0.82 0.55-0.65 1.21-1.32 1.32-1.47-0.01-0.03 0.11-0.12-0.07-0.05 0.73-0.81 0.12 0.03 1.18-1.44-0.04-0.03 0.15-0.19 0.13 0.04 0.05-0.07zm7.21-8.95l-0.12 0.06-0.03-0.1zm4.78-5.07l-0.28 0.01 0.08-0.29 0.02-0.08 0.05-0.05 0.21 0.21zm11.68-8.01l0.26-0.05 0.42-0.43-0.08 0.29-0.55 0.43zm19.74-17.86l-0.02-0.13 0.39-0.42v0.34zm-26.93 32.32l0.51-0.77 1.42-1.63 1.76-1.96 1.45-1.49 1.11-1.17 1.06-0.87 0.13 0.39-0.31 0.17-0.6 1.06-1.11 1.16-1.63 1.94-1.55 1.65-1.21 1.32-1.01 0.96zm2.46 4.42l-0.98 1.13-0.6 1.06-0.64 0.13-0.62 0.26-0.13 0.7-0.88 0.98-1.06 1.42-1.11 1.16-0.95 1.26-0.73 0.42-0.13-0.65-0.62 0.26-0.15 0.57 0.41 0.05-0.05 0.41-0.31 0.47-1.32 1.47-0.36 0.88-0.65 0.8-1.99 2.14 0.06 0.26-0.6 0.38-1.39 1.76-1.37 1.88-1.33 1.03-0.26-0.38-0.72-0.93-0.23-0.49 0.33-0.34 1.3-1.6 1.31-1.47 1.42-1.63 1.99-2.14 1.19-1.44 0.62-0.26 0.18-0.44 0.52-0.77 1.21-1.32 1.76-1.96 1.52-1.78 1.76-1.96 0.28-0.35 0.04 0.09 0.54 0.02 0.34-0.33 0.33-1.01 0.24-0.18 0.41-0.62-0.25-0.01 0.55-0.66 0.98-1.14-0.01-0.05 0.23-0.05 0.72-0.41 1.49-1.28-0.44 0.89-0.36 0.62-0.61 0.78-0.28-0.03 0.05 0.26 0.15-0.09 0.04 0.24-0.25 0.05-0.08 0.29 0.06 0.1-0.01 0.16 0.11 0.03 0.04 0.07 0.06-0.05 0.07 0.02 0.33-0.38 0.11-0.11 0.3-0.23zm-3.16-3.2l-0.03 0.28h-0.05zm6.22-2.76l0.24-0.6 0.13 0.04zm116.53-133.54l-0.7 0.55-0.13-0.65-0.39 0.08v0.67l-0.36 0.21-0.05-0.26-0.39 0.07 0.24 0.5 0.25-0.06 0.06 0.26-0.39 0.75-0.91 0.85-14.84 16.36-0.98 1.14-1.68 1.67-2.17 2.59-1.19 1.44-1.55 1.65-0.88 0.91-0.37 0.07-0.1 0.16 0.04 0.22-0.14 0.14 0.08 0.39 0.26-0.05 0.04-0.05 0.39 0.02 0.31-0.46-0.09-0.19 0.46-0.49 1.42-1.62 1.76-1.96 0.8-0.7 1.08-1.29 0.6-0.39 0.9-0.85 1.11-1.16 0.8-0.7 0.16-0.57 0.49-0.23 14.22-15.43 0.18-0.44 0.93-0.72-0.12 0.7-0.96 0.59-13.86 15.9-0.55 0.64-0.85 1.11-0.54 0.65-1.24 1.18-1.06 1.34-0.14-0.1-0.64 0.13-0.52 0.78 0.18 0.48-0.53 0.6-1.42 1.63-3.41 3.8-0.17-0.35-0.41-0.05-0.44 0.49-0.72 0.42-0.18-0.24-0.03-0.24 0.16-0.25 0.16-0.57-0.29-0.07h-0.12l-0.01-0.18 0.13-0.7-0.02-0.24 0.09-0.04-0.13-0.65-0.25 0.05-0.68 0.67-0.67 0.32 0.14-0.14 1.42-1.62 1.14-1.04 0.26 0.62 0.62-0.25 0.13-0.7h-0.67l0.07-0.29 0.78-0.82 1.68-1.73h0.56l0.33-0.33-0.02-0.55 1.25-1.24 0.75-0.95 1.11-1.16-0.06-0.26 0.26-0.05 1.01-1.01 1.01-1.01 14.4-15.86 0.47-0.36 1.86-1.45 0.23-0.18 0.16-0.29 0.15-0.17 0.7-0.55 0.59-0.38 0.26 0.62zm-22.18 29.05l-0.35-0.23-0.54 0.11 0.55-0.57 1.11-1.16 1.4-1.16h0.01l0.01-0.02 0.08-0.06 0.53-0.47-0.01 0.36-0.42 0.62-0.72 0.42-0.59 1.05zm23.83-30.86l-0.62 0.26-0.25-0.62 0.44-0.49 0.25-0.05zm1.35-2.02l-0.11 0.83-0.74 0.28-0.24-0.49 0.65-0.8 0.39-0.07zm0.75-0.29l-0.55-0.02 0.16-0.57 0.41 0.05zm-82.35 115.06l-0.75-0.39-1.39-1.6-0.42-1.4-0.23-1.16v-0.67l-0.05-0.93-0.28-0.08-0.24 0.18-0.59 1.06 0.39 1.27-0.19 0.43-0.49 0.24-0.43-0.18-0.55-0.03-0.41 0.62 0.1 1.19 0.91 1.16 0.25-0.05 0.16-0.57 0.41 0.05 0.41 1.4 0.52 1.24h0.67l0.21-0.31 0.64-0.13 0.06 0.26 0.51 0.56v0.68l0.18 0.9 0.57 0.83 0.57 0.15 0.26-0.72-0.18-0.91-0.24-0.49-0.28-0.74 0.21-0.99zm97.45-105.31l-1.19-0.57-1.8-0.31-0.73-0.26-1.18 0.11-0.62 0.25-0.52 0.78 0.2 1.03 0.37 0.47 0.9 0.49 2.17 0.1 0.05 0.26 1.24 0.83 1.5 0.1 0.85 0.23 0.49-0.23-0.13-0.64-1.13-2.33zm69.53-94.15l-0.54 0.65 0.02 0.8-1.29 0.26-0.34 0.33-0.46 1.03-0.98 1.14 0.15 0.77 0.18 0.24-0.98 0.46-0.75 0.96 0.29 0.75 0.8 0.64 0.77-0.15 0.34-0.34 0.44-1.16-0.39-1.27 0.64-0.12 1.06-0.75 0.65-0.8 0.23-0.85-0.18-0.91 0.52-0.1 0.59-0.39 0.39-0.75-0.39-0.59zm-187.25-10.05l0.83-0.57 0.93-0.72 1.24-1.19 1.03-0.87 1.12-1.16 1.08-1.3 0.57-1.18-0.16-0.78-0.15-0.1-0.65 0.13-0.33 0.33-1.63 1.94-2.79 2.84-1.99 2.14 0.26 0.62zm62.55-65.9l1.6 0.62 1.24 0.15 0.93-0.05 0.1-0.15 0.03-0.55-0.39-0.59-0.9-0.49-1.27-0.29-1.24-0.15-1.29 0.26-0.1 0.15 0.2 0.36zm68.7-27.8l0.93-0.72 1.03-1.55 0.26-0.72-0.23-0.49-0.65 0.13-0.49 0.23-1.39 1.08-0.96 1.27 0.05 0.93 0.31 0.2zm5.21 24.07l-0.75 0.96v0.67l0.62 0.41 1.42-0.28 0.7-0.54 0.85-1.11v-0.67l-0.34-0.34-1.68 0.33zm-127.04 62.26l1.68-0.34 0.31-0.46-0.39-0.59-0.75-0.39-1.52-0.23-1.96 0.25-0.16 0.57 0.8 0.65zm169.53 24.86l0.83 0.77 1.16-0.23 0.33-0.34 0.39-0.74-0.05-0.93-0.93-0.62-0.9 0.18-0.75 0.95zm-40.19-85.69l-0.38 0.75 0.2 1.03 0.31 0.2 1.42-0.28 0.47-0.36 0.38-0.75-0.18-0.9-0.46-0.31-0.93 0.05zm22.24 28.72l-2.19 1.78 0.05 0.26 1.37-0.54 2.42-1.29 2.12-1.5v-0.67l-0.51 0.11-1.48 0.69zm-90.38-35.13l1.29-0.26-0.02-0.8-0.65-0.55-1.42-0.38-1.16 0.23-0.1 0.15-0.03 0.55 0.65 0.54zm47.86 11.13l-0.77 0.15-0.47 0.36-0.38 0.75 0.13 0.65 0.64 0.54 0.93-0.05 0.67-0.67 0.23-0.86-0.23-0.49zm1.13 168.4l-0.44 0.49 0.15 0.77 1.11 0.85 0.93-0.05 0.42-0.62-0.21-1.03-0.93-0.62zm1.9-169.4l-0.65 0.8 0.21 1.03 0.75 0.39 0.77-0.15 0.65-0.8-0.05-0.93-0.37-0.47-0.82-0.1zm51.49 33.36l-0.64 0.13-1.37 0.54-1.86 1.45 0.08 0.38h0.67l1.7-0.87 1.4-1.09zm-164.88 24.69l-0.24 0.19 0.11 0.51 0.59 0.29 1.52 0.23 0.93-0.05 0.11-0.16-0.13-0.64-0.47-0.31-0.98-0.21zm172.08-12.17l0.03-0.54-1.3 0.26-0.98 0.46-0.8 0.7-0.05 0.41 0.57 0.16 1.39-0.41zm-275.78 125.84l1.01-1.01 0.02-0.54h-0.67l-0.7 0.54-16.2 16.09-0.16 0.57 0.65-0.13zm263.8-123.99l0.23 0.49 1.27-0.38 1.06-0.75v-0.67l-0.78 0.15zm14.06 29.42l0.93-0.05 0.41-0.62v-0.67l-0.46-0.31-0.65 0.12-0.51 0.78zm-3.64-3.44l-0.44 0.49 0.15 0.78 0.34 0.33h0.67l0.34-0.33-0.03-0.8-0.36-0.47zm-15.41-16.66v0.67l0.31 0.21 1.04-0.21 0.31-0.46-0.13-0.65-0.16-0.1-0.77 0.15zm-120.31 202.64l-0.23 0.18 0.15 0.77 0.7 0.8 0.49-0.23-0.2-1.03-0.37-0.46zm71.61-93.58l0.2-0.31v-0.67l-0.33-0.34-0.8 0.03-0.24 0.18 0.13 0.64 0.49 0.44zm58-57.75l-0.31 0.47 0.24 0.49 0.56 0.15 0.62-0.25v-0.67l-0.33-0.34zm2.7-77.33l-1.17 0.9 0.08 0.39 0.65-0.13 1.29-0.93 0.03-0.54-0.39 0.08zm-200.81 274.64l0.03 0.8 0.62-0.26 0.67-1.34-0.31-0.21zm192.44-284.25l-0.77 0.15-0.54 0.65 0.23 0.49 0.64-0.13 0.57-0.51zm-45.44 145.59l-0.03 0.54 0.78 0.52 0.46-0.36-0.13-0.65-0.31-0.2zm-155.49 139.14l-0.31 0.47v0.02l-0.27-0.18h-0.67l-0.23 0.18-0.03 0.55h0.67l0.31 0.2 0.26-0.01 0.01 0.17 0.54 0.02 0.31-0.46v-0.03l0.82-0.75-0.08-0.38-0.52 0.1-0.26 0.27-0.01-0.14zm120.04-100.28l-0.24 0.18 0.16 0.77 0.33 0.34 0.55 0.02v-0.67l-0.39-0.59zm99.33-116.98l-0.44 0.49 0.26 0.62 0.77-0.16 0.21-0.31-0.23-0.49zm-186.6-23.6l-0.51 0.1-0.52 0.78-0.7 0.54 0.1 0.52 1.71-1.55zm177.17-20.97l0.9-0.18 0.7-0.54 0.05-0.42-0.77 0.16-0.83 0.57zm8.41 57.66l-0.23 0.18 0.13 0.64 0.57 0.16 0.36-0.21 0.03-0.54-0.31-0.21zm-7.61-21.97l0.13 0.64 0.54 0.03 0.31-0.47-0.23-0.49-0.65 0.13zm-105.63 113.67l-0.02 0.54 0.59-0.38 0.41-0.62-0.31-0.21zm103.33-148.79l-0.65 0.13-0.15 0.57 0.28 0.08 0.49-0.23zm-193.97 246.97l-0.11 0.15v0.67l0.49-0.23 0.01-0.67zm-66.7-129.51l0.49-0.24-0.08-0.38-0.41-0.05-0.18 0.43zm273.62-89.56l-0.03 0.54 0.42 0.05 0.02-0.54zm2.79-2.84l0.52-0.1 0.1 0.52-0.52 0.1zm-204.31 216l-0.03 0.55 0.39-0.08 0.18-0.44zm112.4-123.03l0.51-0.1-0.1-0.52-0.39 0.08zm84.23-95.2l-0.1-0.52-0.39 0.08-0.05 0.41zm-253.64 80.07l11.45-12.72-11.91 12.41-0.03 0.55zm252.66-134.12l-0.18 0.44 0.75-0.28-0.08-0.39zm-184.65 49.44l-0.54-0.02 0.08 0.38 0.41 0.06zm-27.35 249.18l0.25-0.05 0.16-0.57-0.39 0.08zm-47.42-163.43l-0.23 0.18-0.03 0.54 0.47-0.36zm3.92-1.19l-0.38 0.08 0.1 0.52 0.36-0.21zm1.81 0.98l-0.41-0.05-0.03 0.54 0.26-0.05zm248.14-100.86l-0.39 0.08-0.07 0.28 0.54 0.03zm-227.24 72.29l-0.39 0.07-0.05 0.42 0.39-0.08zm30.24 181.05l0.18 0.24 0.31-0.47-0.42-0.05zm-52.46-151.01l-0.28-0.08-0.16 0.57 0.26-0.05zm46.52-56.52l-0.41-0.05-0.21 0.31 0.42 0.05zm0.3 214.29l0.08 0.39 0.34-0.34-0.31-0.2zm-30.5-173.62l0.05-0.42-0.39 0.08 0.08 0.39zm44.17 150.62l0.05 0.26 0.39-0.08-0.21-0.36zm67.45-279.6l-0.05 0.42 0.36-0.21zm-128.41 141.82l-0.26 0.06 0.21 0.36zm91.03 130.59l0.26-0.05 0.05 0.26-0.26 0.05zm140.82-238.41l0.26-0.05 0.05 0.26-0.25 0.05zm-154.97 27.95l0.26-0.05 0.05 0.26-0.26 0.05zm-35.04 237.56l0.23-0.18-0.28-0.08zm5.19-211.63l-0.11 0.15 0.29 0.08zm90.8-107.89l0.06 0.26 0.23-0.19zm-131.46 367.74l-0.52 0.78-1.6 2.06-0.98 1.14-0.59 1.06-0.65 0.13-0.62 0.25-0.13 0.7-0.88 0.98-1.06 1.42-1.11 1.16-0.95 1.27-0.73 0.41-0.12-0.65-0.62 0.26-0.16 0.57 0.41 0.05-0.05 0.42-0.31 0.46-1.32 1.47-0.36 0.88-0.64 0.8-1.99 2.14 0.05 0.26-0.6 0.39-1.39 1.75-1.37 1.89-1.4 1.08-1.44 1.5-0.83 1.24-0.15 0.56-0.26 0.06-0.91 0.85-0.59 1.06-1.37 1.21-1.09 1.29-1.18 1.44-1.17 1.58-0.98 1.13-0.28 1.27-0.31 0.46-0.16 1.24 0.1 0.52 0.65-0.13 0.44-0.49 2.04-1.88 1.29-1.6 1.81-1.71 1.96-2.94 0.68-0.67 0.87-0.98 1.3-0.93 1.16-1.57 0.64-1.48 1.09-1.29 1.39-1.08 0.24-0.85 1.03-0.88 0.36-0.88 0.73-0.41 0.07-0.96 0.26-0.05 0.52-0.77 0.93-0.72 1.01-1.01 1.29-1.6 0.41-1.29 1.19-0.78 0.49-0.9 0.47-0.36 0.54-0.65 0.9-0.85 0.24-0.85 0.36-0.21 0.18-0.43 0.82-0.57 0.24-0.85 0.44-0.49 0.57-1.19 0.67-0.67 0.41-0.62 0.65-0.8 1.11-1.16 0.41-1.29 0.03-0.55-0.39 0.08zm-31.49 21.85l0.8-0.69 1.37-1.21 0.6-0.39-0.05 0.41-0.16 0.57-0.26 0.05 0.05 0.26-0.25 0.05 0.05 0.26-0.26 0.05-0.73 1.08-1.18 1.45-0.03 0.54 0.52-0.1 1.03-0.88 1.45-1.5 0.98-1.13 0.7-1.21 2.06-3.1 0.7-1.21-0.23-1.17-0.54-0.69-1.19-0.57-1.29 0.25-1.37 1.22-1.32 0.13-0.62 0.93-1.11 0.49-0.41 0.61-0.16 0.57-0.36 0.21-1.47 1.37-0.88 0.98-0.52 0.77-1.2 1.35-0.01-0.03-0.1 0.15-1.58 2.2-0.05 0.08-0.05 0.07 0.01 0.01-0.21 0.36-0.01-0.06-0.21 0.31 0.07 0.02-0.25 0.42v0.67l0.26-0.05 0.28-0.59 0.83-1.24 0.98-1.14 0.62-0.26 0.06 0.26-0.47 0.36-0.16 0.57-0.25 0.05-0.39 0.75-0.52 0.78-0.15 0.56 2.35-2.34 0.8-0.7-0.05 0.41 0.54 0.03 0.93-0.73-0.03 0.55-0.26 0.05-0.54 0.64 0.21 0.37 0.57-0.52 1.31-0.8zm-51.44-40.49l0.7-1.21-0.05-0.93-0.15-0.1-0.91 0.18-0.67 0.67-0.8 0.69-0.75 0.29-0.75-0.39-0.75 0.28 0.05 0.26-0.25 0.05-0.55 0.65-1.42 1.62 0.05 0.26-0.36 0.21-0.51 0.62-0.03 0.02-0.03 0.06-0.62 0.74-0.93 1.4-1.52 1.78-1.37 1.88 0.28 0.08 0.68-0.67-0.06-0.26 0.26-0.05 0.55-0.64 0.87-0.99 1.53-1.78 0.98-1.13-0.18 0.44-1.09 1.29 0.06 0.26-0.26 0.05-0.31 0.46-1.19 1.45 0.05 0.26-0.26 0.05 0.05 0.26-0.26 0.05-1.03 1.55 0.28 0.07 0.32-0.46 1.08-1.29 1.21-1.32 1.04-0.88 0.54-0.64 1.24-1.19-0.08 0.29-1.26 1.73-0.13 0.69-0.26 0.05-0.18 0.44-0.85 1.11 0.05 0.26-0.26 0.05 0.05 0.26-0.36 0.21-1.5 1.91-0.98 1.13-1.06 1.42-1.22 1.99-0.07 0.96 0.41 0.05 0.53-0.94 1.2-1.15 0.7-0.77 1.29-1.38 0.27-0.36 1.02-1.24 0.93-1.39 0.85-1.11 1.24-1.86 1.06-1.42 1.12-1.16 1.7-2.22 0.49-0.9zm-8.35-37.14l-1.34 1.35-1.37 1.21-0.33 0.33-0.06-0.26 0.6-0.38-0.05-0.26 0.26-0.05 0.07-0.29 0.96-1.26 0.13-0.7-0.26 0.05-0.77 0.83-1.27 1.73-1.78 3.17h0.67l1.39-1.08 1.22-1.32 1.6-2.06 0.93-0.72-0.08 0.28-1.65 2.48-0.16 0.57-0.46 0.36-0.16 0.57-0.26 0.05 0.05 0.26-0.25 0.05-0.08 0.28-1.14 1.71 0.34 0.33 1.03-0.2 0.67-0.68 1.4-1.75 1.19-1.45-0.06-0.25 0.26-0.06-0.05-0.25 0.26-0.06-0.05-0.25 0.26-0.06 0.93-1.39 1.37-1.88 1.11-1.84-0.18-0.9-0.21-0.36h-0.67l-1.06 1.42-0.93 0.05-0.93 1.39zm9.49-70.9l0.8-0.69 0.67-0.67 0.57-0.52 1.08-1.29 0.62-0.26 0.08 0.39-0.41 0.62 0.05 0.26-0.26 0.05 0.05 0.26-0.26 0.05-0.9 0.85-0.93 1.39-0.03 0.55 0.31 0.2 0.75-0.28 0.36-0.88 1.68-1.68 1.22-1.31 0.98-1.14 0.54-1.32 0.83-0.56 0.64-0.8 1.76-1.96 0.52-0.78-0.21-0.36-0.39 0.08-0.85 1.11-0.98 0.46-1.37 1.89-0.16 0.56-0.98 0.47-0.95 1.26-0.62 0.26v-0.67l0.49-0.9 0.1-0.83 0.6-0.39 0.02-0.54 0.73-0.41-0.06-0.26-0.49 0.23-0.69 0.54-0.26 0.73-0.49 0.23-0.47 0.36-0.98 1.13-0.54 0.65-0.24 0.85-0.85 0.44-0.57 0.52-0.15 0.56-0.26 0.06-0.49 0.9-0.9 0.85-0.03 0.54 0.26-0.05zm173.63 44.21l-1.19-0.57-1.81-0.31-0.72-0.26-1.19 0.1-0.62 0.26-0.52 0.77 0.21 1.04 0.36 0.46 0.91 0.49 2.16 0.11 0.06 0.26 1.23 0.82 1.5 0.11 0.85 0.23 0.49-0.23-0.12-0.65-1.14-2.32zm-192.55 51.4l1.47-2.04 1.68-2.35 0.85-1.11 0.93-1.39 0.86-1.11 1.75-2.64 0.86-1.11 1.65-2.48 0.15-0.56-0.25 0.05-0.88 0.98-1.4 1.75-1.19 1.45 0.06 0.26-0.26 0.05-1.4 1.75-1.5 1.91-0.85 1.11-1.06 1.42-1.19 1.45 0.05 0.26-0.25 0.05-1.37 1.88-0.7 1.22 0.36 0.46 0.65-0.13zm105.95 21.02l-0.82 0.57-0.21-1.03 0.08-0.29-0.21-1.03-0.62-0.41-0.64 0.13-0.11 0.15-0.36 0.88 0.23 1.16 0.34 1.01-0.52 0.77-0.85 1.11 0.05 0.26-0.46 0.36-0.7 1.21 0.62 0.42 0.9-0.18 0.67-0.67 0.49-0.91 0.99-0.46 1.65-2.48 0.13-0.7zm-31.12-176.61l0.83-0.57 0.93-0.72 1.24-1.19 1.03-0.88 0.31-0.32 0.03 0.19 0.39-0.07 0.05-0.42-0.23 0.05 0.56-0.59 1.09-1.29 0.46-0.96 1.04-0.74 0.29-0.25 1.13 0.31-0.25 0.38-0.03 0.54-0.76 0.08-0.23 0.18 0.1 0.51 0.11 0.06v0.67l0.65-0.13 0.22-0.25 1.14 0.17 0.93-0.05 0.1-0.15-0.13-0.65-0.46-0.31-0.75-0.16 0.14-0.05 0.36-0.88 0.09-0.09 0.7-0.14 0.31-0.46-0.16-0.25 0.74-0.73 1.21-1.32 0.99-1.13 0.54-1.32 0.83-0.57 0.64-0.8 1.76-1.96 0.52-0.77-0.21-0.37-0.39 0.08-0.85 1.11-0.98 0.47-1.37 1.88-0.16 0.57-0.98 0.46-0.95 1.27-0.62 0.25v-0.67l0.49-0.9 0.1-0.83 0.59-0.38 0.03-0.55 0.72-0.41-0.05-0.26-0.49 0.24-0.7 0.54-0.25 0.72-0.49 0.23-0.47 0.36-0.98 1.14-0.54 0.64-0.24 0.86-0.85 0.44-0.57 0.51-0.08 0.31-1.4 0.18-0.15 0.57 0.66 0.53-0.58 0.55-0.06-0.28-0.15-0.1-0.65 0.13-0.33 0.33-1.63 1.94-2.79 2.84-1.99 2.14 0.26 0.62c0 0 0.64-0.13 0.64-0.13zm10.86-10.69l0.62-0.25 0.08 0.38-0.42 0.62 0.05 0.26-0.25 0.05 0.05 0.26-0.26 0.05-0.28 0.26-0.19-0.1-0.64-0.1 0.15-0.14zm-50.91 150.89l-1.44 1.49-1.97 1.6-0.59 1.06-0.98 1.14v0.67l1.01-0.34 0.31-0.46 1.26-1.06 0.49-0.23 2.15-0.7-0.26 0.73 0.54 0.02 0.26-0.72v-0.67l-1.16 0.23 0.1-0.83 0.77-0.82 0.88-0.31 0.03-0.54-0.65 0.12-0.1-0.51zm0.98 53.37l1.27-1.73 0.02-0.54-0.41-0.05-0.23 0.18-1.76 2.63-0.65 0.8-0.51 0.77-1.17 0.91-0.15-0.78-0.26 0.05-0.64 0.8-0.86 1.79-0.88 1.65-0.25 0.72 1-0.33 0.34 0.33 0.46-0.36v-0.67l-0.51 0.1 0.18-0.44 0.67-1.34 0.39-0.08 0.05 0.26-0.57 0.52-0.13 0.69 0.65-0.12 0.2-0.31v-0.68l0.26-0.05 1.58-2.19 1.06-1.42 0.15-0.57 0.26-0.05zm64.64-11.15l-0.47 0.36-1.11 1.17-0.39 0.74-0.54 0.65-0.39 0.75 0.26 0.62 0.9-0.18 0.73-0.42 1.83-1.57 0.73-1.75-0.52-0.57zm-92.08-55.75l-1.73 2.1-1.18 1.44-1.45 2.17-0.52 0.77 0.02 0.1-0.2 0.34 0.03 0.8 0.54 0.03 0.85-1.11 4.14-6.2 0.15-0.56 0.26-0.06 0.52-0.77 0.02-0.54-0.39 0.08zm99.06-161.47l1.61 0.62 1.24 0.15 0.92-0.05 0.11-0.15 0.02-0.55-0.38-0.59-0.91-0.49-1.26-0.29-1.24-0.15-1.29 0.26-0.11 0.15 0.21 0.36zm-86.16 139.3l-1.58 2.19 0.05 0.93 0.62-0.26 1.06-1.42 1.78-2.5 0.86-1.11 1.65-2.48 0.03-0.54-0.39 0.08-0.1 0.15-1.27 1.73-1.53 1.78zm19.72 32.19l-1.3 1.6-0.02 0.54 1.24 0.15 0.38 0.6 0.88-0.31 0.36-0.88 0.75-0.28 0.57 0.15 0.16-0.57-0.42-0.05-0.23-0.49-1.19 0.1-0.31-0.87-0.28-0.08zm79.18 23.41l0.1 0.51 1.27-0.38 0.39-0.75 1.39-1.76 1.73-2.09 0.98-1.13-0.05-0.26 0.26-0.05-0.05-0.26 0.26-0.05 1.5-1.91 1.55-1.65-0.06-0.26 0.6-0.39 0.41-0.62 0.54-0.64-0.05-0.26-0.26 0.05-0.54 0.64-2.63 2.95-1.3 1.6-1.18 1.44-1.42 1.63-2.38 2.89zm15.45-18.12l-0.98 1.14-0.03 0.54 0.26-0.05 0.05 0.26 0.28 0.07 0.37-0.2-0.06-0.93 0.6-0.39 1.63-1.94 0.98-1.13 1.52-1.78 0.83-0.86 0.16-0.07 0.01-0.11 0.11-0.12 0.65-0.8 0.67-0.67 0.13-0.7-0.28-0.08-0.47 0.36-1.38 1.58-0.08-0.01-0.21 0.31 0.01 0.02-1.62 1.84-1.39 1.76-0.91 0.85zm-40.25 48.58l0.54 0.02 0.34-0.33 0.33-1.01 0.23-0.18 0.42-0.62-0.54-0.03-0.44 0.49-0.73 0.42 0.26-0.73 0.03-0.54-0.54-0.03-0.47 0.37-0.75 0.95-0.7 1.21-0.87 1.66-0.03 0.54 0.52-0.1 0.56-0.52 0.7-1.89 0.91-0.18zm-48.38-26.46l0.1 0.52 0.62-0.26 1.06-0.75 0.73-1.08 0.93-0.73 0.38-0.75-0.2-1.03-0.52 0.1-0.23 0.19-0.39 0.74-1.14 1.04-0.28-0.75-0.39 0.07 0.03 0.8 0.46 0.31-0.41 0.62zm-22.46-59.42l-0.08-0.39-0.25 0.05-0.57 0.52-0.86 1.11 0.11 0.52-0.98 1.13-1.17 1.58-0.02 0.54 0.64-0.13 0.11-0.16 2.11-2.16 0.96-1.27 0.16-0.57-0.39 0.08-0.83 0.57 0.08-0.29zm-29.78 20.98l0.38-0.75 0.03-0.54-0.39 0.08-1.11 1.16-2.09 2.3-0.68 0.94-0.07 0.01-0.62 0.93-0.15 0.57 0.51-0.1 1.22-1.32 1.55-1.65zm8.54 5.14l0.54-0.64 1.58-2.2 0.85-1.11 2.28-3.41 0.05-0.41-0.26 0.05-0.96 1.27-1.18 1.44 0.05 0.26-0.26 0.05-0.52 0.78-0.85 1.11-2.69 4.02-0.13 0.7 0.26-0.05zm112.21-174.3l1.29-0.25-0.02-0.8-0.65-0.55-1.42-0.38-1.16 0.23-0.1 0.15-0.03 0.54 0.65 0.55zm78.98 148.4l-0.44 0.49 0.16 0.78 1.11 0.85 0.93-0.05 0.41-0.62-0.21-1.03-0.92-0.62zm-158.69 12.55l0.52-0.1 0.67-0.67 1.53-1.78 0.54 0.02 0.36-0.2 1.11-1.16-0.08-0.39-0.51 0.1-0.47 0.36-1.06 0.08-0.72 1.08-1.55 1.66-0.54 0.64zm-4.63 67.65l-0.99 1.14-0.8 1.36-0.67 0.67-0.13 0.7-0.26 0.72-0.02 0.55 0.46-0.36 1.78-2.51 1.25-1.86 0.12-0.69-0.51 0.1zm-5.65-9.48l1.26-1.73 0.86-1.11-0.05-0.26 0.25-0.05-0.05-0.26 0.26-0.05 0.31-0.46v-0.67l-0.39 0.07-0.33 0.34-0.28 0.54-0.55 0.7-1.27 1.73-1.49 1.91 0.23 0.49 0.49-0.24zm16.91-40.42l-0.11 0.82 1.24 0.83 1.16-0.9 0.24-0.85-1.04-0.47-0.8 0.03zm-4.29 6.09l-1.16 0.23-0.8 0.7-0.02 0.54 1.08 0.72 0.65-0.13 0.28-0.59 0.64-0.13 0.32-0.46-0.21-0.37-0.54-0.02zm-22.69-52.91l0.07 0.09 0.11-0.07 0.15 0.02 0.26-0.29 0.07-0.04-0.01-0.02 1.33-1.45 1.99-2.15v-0.67l-0.41-0.05-0.34 0.34-0.98 1.13-1.29 1.48-0.03-0.01-0.1 0.16-0.85 1.11-0.03 0.2-0.05 0.08 0.03 0.05-0.01 0.08zm30.13 100.96l-0.31 0.47 0.13 0.64-0.32 0.2-0.04 0.01-0.6 0.39-0.51 0.77 0.26 0.62 1.21-0.64 0.15-0.57 0.08-0.29-0.09-0.19-0.01-0.32 0.75-0.29 0.21-0.3 0.85-0.44v-0.67l-1.06 0.07zm-22.89-30.61l-0.26 0.05-0.75 0.96-0.36 0.88v0.67l0.39-0.08 0.49-0.9 0.52-0.78 0.75-0.95-0.05-0.26 0.25-0.05-0.05-0.26 0.26-0.05 1.55-2.32-0.08-0.39-0.67 0.67-0.95 1.26-1.09 1.29zm31.17-15.92l0.03 0.03 0.46-0.36 0.6-0.38 0.22-0.25 0.11-0.09-0.02-0.01 0.57-0.63 1.47-1.37 1.24-1.19 0.74-0.57h0.09l0.33-0.33 0.03-0.54-0.39 0.07-0.33 0.34 0.02 0.13-0.1 0.15-0.13 0.03-1.16 0.9-0.8 0.7-0.7 0.54-0.42 0.62-1.05 0.75 0.02 0.13-0.7 0.54-0.05 0.11-0.05 0.04-0.02 0.1-0.16 0.34 0.08 0.11-0.03 0.15zm-28.08-60.14l-0.18 0.31-0.24 0.31-0.05 0.19-0.23 0.41 0.1 0.51 0.65-0.13 0.59-0.38 0.88-0.98-0.02-0.31 0.1 0.02-0.13-0.64-0.16-0.11-0.77 0.16zm-16.6-9.85l1.01-1.01 0.03-0.54h-0.68l-0.69 0.54-1.63 1.94-0.16 0.57 0.65-0.13zm46.26 118.18v0.67l-0.52 0.1-0.98 1.14-0.13 0.16-0.1 0.02-0.41 0.62v0.67l0.51-0.1 0.34-0.34 0.85-1.11 1.29-1.6 0.03-0.54-0.54-0.03zm-7.83-0.18l0.39-0.08 0.28 0.75 0.42 0.05 0.33 0.34 0.55-0.65 0.15-0.57-0.44-0.18 0.47-0.36 0.02-0.54-0.41-0.05-0.9 0.18-0.08 0.28-0.72 0.41zm-31.15-92.86l0.03-0.54h-0.67l-0.75 0.95-0.86 1.11-0.93 1.39-0.15 0.57 0.26-0.05 0.67-0.67 1.42-1.63zm23.74 36.89l-0.37 0.2-0.51 0.78-0.16 0.57-0.26 0.05-0.41 0.62 0.23 0.49 0.62-0.26 0.54-0.65 1.22-1.31-0.23-0.49zm-8.14 58.14l0.26-0.05 0.44-0.49 0.51-0.77 0.91-1.53 0.13-0.69 0.26-0.06-0.08-0.38-1.03 0.87-1.45 2.17zm-11.66-121.05l0.67-0.67 0.57-0.52 0.24-0.29 0.2-0.2 0.51-0.67 0.24-0.28 0.51-0.78 0.57-0.51 0.67-0.68 0.92-0.97 0.09-0.03 0.88-0.98 0.42-1.03 0.16-0.3 0.74-0.81 0.01-0.04 0.42-0.46 0.94-1.39 0.72-0.41 0.88-0.98 0.26-0.73 1.21-1.31-0.23-0.49-0.73 0.41-0.12-0.65 0.31-0.46 0.05 0.26 0.54 0.02 0.21-0.3-0.03-0.81 0.26-0.05 0.21 0.36 0.67 0.01 0.33-0.34 0.6-0.39 0.54-0.64 0.75-0.96 1.21-1.31 0.65-0.8 1.08-1.29 0.91-0.86 1.73-2.09 1.32-1.47 0.85-1.11 0.15-0.57-0.41-0.05-0.31 0.47-0.72 0.41-0.42 0.62-1.03 0.21 0.16 0.77-0.76 0.76-0.95 0.79 0.13-1.37-0.77 0.15 0.23-0.85 0.02-0.54-0.38 0.08-0.93 0.72 0.15 0.77 0.16 0.11-0.13 0.7 0.23 0.49 0.26 0.62-0.42 0.62-0.05 0.41-0.38 0.08-0.06 0.41-0.25 0.05-0.13 0.7-0.68 0.67-0.98 1.13-0.54-0.02-0.26-0.62 1.11-1.16-0.05-0.26 0.47-0.36 0.93-0.05 0.23-0.86-0.05-0.93-0.65 0.13-0.33 0.34-0.16 0.57-0.88 0.31-0.51 0.77-0.83 0.57 0.08 0.39-0.26 0.05-0.08 0.28-0.57 0.52-0.25 0.72-0.47 0.36-0.15-0.1 0.51-0.78-0.13-0.64-0.15-0.11 0.83-1.23 0.56-0.52 0.52-0.77 0.7-0.55 0.13-0.69-0.52 0.1-0.21 0.31-1.03 0.88-0.05 0.41-0.72 0.41-0.96 1.27-0.57 0.51-0.05-0.26-0.54-0.02-0.47 0.36-0.75 0.95-0.88 0.99-1 1-1.3 1.6-1.08 1.29-0.26 0.73-0.67-0.01-0.08 0.29-0.41 0.62-0.05 0.41-0.26 0.05-0.54 0.65-0.06 0.41 0.49 0.44-0.25 0.05-0.39 0.75-0.54 0.65-0.62 0.25-0.6-0.28-0.36 0.21-0.03 0.54 0.26-0.05v0.67l-0.26 0.05-0.31 0.46-0.15 0.57 0.39-0.07 0.46-0.37 1.24-0.51 0.1-0.16 0.91-0.85 0.02-0.54 0.52-0.1 0.31-0.47 0.96-0.59 1.03-0.88 0.26 0.62v0.67l-0.54 0.65 0.07 0.96-0.2 0.37-0.75 0.99-0.7 0.54-0.78 0.83 0.08 1.06-0.9 0.18-0.36 0.2-1.32 1.47-0.86 1.11-0.59 1.06 0.13 0.65 0.52-0.1zm12.35-17.5l0.51-0.78 0.55 0.03 0.36 0.46-0.42 0.62-0.56 0.52-0.8 0.02-0.21-0.36zm-1.24 1.86l0.26-0.05 0.05 0.26-0.39 0.07zm-3.3-0.41l0.36-0.88 0.59-0.38-0.08-0.39 0.21-0.31 0.54 0.02-0.02 0.55-0.57 0.51-0.7 1.22-0.26 0.05zm0.03 1.47l0.33-1.01 0.91-0.18 0.08 0.39-0.31 0.46-0.57 0.52-0.08 0.28-0.26 0.06c0 0-0.1-0.52-0.1-0.52zm0.43 2.44l0.11-0.4 0.39-0.08 0.07 0.39-0.07 0.28-0.11 0.16-0.38 0.08 0.07-0.29zm-0.92-1.53l0.18 0.23-0.26 0.05zm0.23 2.51l0.18 0.23-0.49 0.23 0.06-0.41zm-0.96-1.42l0.26-0.05 0.05 0.25-0.26 0.06zm-1.01 1l0.31-0.46 0.52-0.11-0.02 0.55-0.86 0.43zm0.18 2.25l0.42 0.05-0.03 0.55-0.41-0.06zm28.93-31.95l0.52-0.77 0.57-0.52-0.11-0.51-0.77 0.15-0.54 0.64-0.52 0.78-0.57 0.52-0.33 1 0.41 0.05zm70.4 120.08l-0.23 0.18-0.39 0.75 0.16 0.77 0.36 0.47 0.64-0.13 0.62-1.6-0.33-0.34zm-77.52-97.17l0.54-0.65 0.03-0.54-0.31-0.21-0.64 0.13-0.26 0.72-0.93 0.73 0.05 0.93 0.62-0.26zm67.41 107.11l-0.23 0.18-0.65 0.8 0.13 0.65 0.31 0.21h0.67l0.19-0.44 0.59-0.39 0.05-0.41-0.49-0.44zm-73.88-27.15l-0.42 0.62 0.26 0.62 0.75-0.29 1.11-1.16v-0.67l-0.9 0.18zm16.44 55.52l0.78-0.82 0.56-0.52 0.31-0.46-0.23-0.49-0.38 0.07-0.55 0.65-0.51 0.77-0.47 0.36-0.54 0.65 0.1 0.52 0.54 0.02zm-12.99-147.91l0.31-0.46 0.37-0.21 0.38-0.07 0.24 0.49-0.24 0.18-1.06 0.75-0.38 0.74-0.91 0.86 0.1 0.51 0.52-0.1 0.52-0.77 0.75-0.96 1.24-1.19 1.57-1.52 1.55-1.65 1.35-1.34 1.55-1.65 1.75-1.97 0.57-0.51-0.05-0.26 0.26-0.05-0.05-0.26 0.46-0.36-0.28-0.08-0.78 0.83-1.37 1.21-0.93 0.72 0.13-0.7 0.16-0.56 0.26-0.05 0.02-0.55-0.38 0.08-0.78 0.83-1.37 1.21-0.85 1.11-0.54 0.51-0.03 0.01-0.34 0.33-0.64 0.8-0.13 0.7 0.26-0.05 0.67-0.67 0.59-0.39 0.05 0.26-0.41 0.62-1.76 1.96-0.46 0.22-0.23-0.35 0.67-0.67 0.15-0.57-0.51 0.1-0.23 0.18-1.53 1.78-0.88 0.98-0.15 0.57 0.64-0.13zm-36.9 66.71l1.21-1.32 0.85-1.11-0.05-0.26 0.26-0.05 0.28-0.59v-0.68l-0.54-0.02-0.67 0.67-1.34 2.01-0.67 1.34 0.18 0.24zm31.97 79.54l0.39-0.08 0.75-0.95 0.8-0.7v-0.67l-0.52 0.1-0.1 0.16-1.21 0.64-0.16 0.57zm3.4 12.35l0.18 1.57 0.88-0.31 1.09-0.62-0.05-0.26-0.6-0.28zm-4.1-11.13l0.03-0.54-0.42-0.05-1.36 1.88-0.01 0.67 0.52-0.1 0.91-0.85zm1.54-137.65l-0.21 0.31-1.32 1.47-0.67 0.67-0.02 0.54 0.38-0.08 0.7-0.54 0.31-0.46 0.57-0.52 0.62-0.93 0.15-0.57zm30.36 165.35l-0.05 0.05-0.02 0.06-0.42 0.77-0.26 0.38-0.03 0.13-0.25 0.47-0.03 0.54 0.57 0.16 0.28-0.6 0.55-1.31 0.36-0.88-0.31-0.21-0.34 0.34zm-33.47-19.46l-0.31 0.46-0.65 0.8-0.38 0.75-0.03 0.54 0.49-0.23-0.05-0.26 0.49-0.23 0.31-0.47 0.75-0.95v-0.67l-0.39 0.08zm-9.24-49.71l-0.52 0.77-0.7 0.54-0.88 0.98-0.02 0.55 0.26-0.06 0.44-0.49 0.69-0.54 0.16-0.57 0.39-0.07 0.31-0.47 0.69-0.54 0.16-0.57-0.41-0.05zm14.12 44.57l-0.41-0.05 0.08-0.28-0.08-1.06-0.52 0.1-0.23 0.18-0.31 0.47 0.47 0.98 0.25-0.05 0.11 0.51 0.62-0.25zm60.97-24.79l-0.02 0.55 0.49-0.24 0.11-0.11 0.12-0.07 1.11-1.16 0.12-0.2 1.17-1.4 0.44-0.49 0.03-0.07 0.07-0.08 1.58-1.53 0.49-0.9 0.65-0.8 0.02-0.54-0.64 0.13-0.91 0.85-0.69-0.13-0.83-0.1-0.31 0.46-0.44-0.18-0.33 0.33 0.15 0.78 0.15 0.1 0.65-0.13 0.7-0.54-0.05 0.41-1.22 1.99-1.19 1.45zm-70.94-21.16l-0.52 0.1-0.88 0.98-0.02 0.55 0.28 0.07 0.75-0.28 0.65-0.8zm2.21-87.84l-0.26 0.72 0.65-0.13 0.41-0.62 0.88-0.98 0.13-0.69-0.39 0.07-0.36 0.21zm74.15 116.64l0.64-0.8 0.52-0.77 1.06-0.75 0.05-0.41 0.31-0.47v-0.67l-0.51 0.1-0.86 1.11-1.68 1.68-1.75 1.96-0.03 0.55 1.29-0.26 0.31-0.47 0.16-0.56zm-56.84 11.87l-0.13-0.65 0.88-0.31-0.21-0.36-0.85-0.23-0.23 0.18-0.26 0.72-0.49 0.24 0.49 0.44zm-15.86-32.42l0.02-0.54-0.64 0.13-0.42 0.62-0.82 1.24-0.03 0.54 0.47-0.36zm-22.14-31.57l-0.13 0.7 0.23-0.18 1.68-1.68 0.26-0.72-0.54-0.03-0.44 0.49zm133.44 38.36l-0.23 0.19 0.16 0.77 0.69 0.8 0.49-0.23-0.2-1.03-0.36-0.47zm-14.84-15.84l0.05 0.93 0.39-0.07 0.15-0.57 0.26-0.05 0.93-0.73 0.03-0.54-0.44-0.18-0.34 0.34-0.15 0.57-0.78 0.15zm-112.95 14.61l-0.38 0.08-0.52 0.77-0.57 0.52-0.31 0.46-0.26 0.72 0.88-0.31 0.36-0.87 0.36-0.21 0.31-0.46zm169.5-57.95l0.21-0.31v-0.67l-0.34-0.34-0.8 0.03-0.23 0.18 0.13 0.65 0.49 0.43zm-159.94-6.52l0.16-0.57-0.41-0.05-0.24 0.18-1.34 2.01-0.16 0.57 0.26-0.05 0.88-0.98zm8.17-16.93l-0.93 0.05-0.44 0.49 0.23 1.16 0.26-0.05 0.75-0.96zm-24.12 12.33l0.33 0.34 0.62-0.26 0.52-0.77-0.26-0.62-0.39 0.07-0.57 0.52zm192.38-3.17l-0.31 0.47 0.23 0.49 0.57 0.15 0.62-0.25v-0.68l-0.34-0.33zm-117.1 101.86l-0.31 0.47-0.16 0.57 0.39-0.08 0.7-0.54 0.28-0.22 0.08 0.01 0.8-0.69 2.17-2.59 0.54-0.64 1.19-1.45 0.8-0.69 0.08 0.38 0.54 0.03 0.29-0.59 0.13-0.7-0.44-0.18-0.06-0.26 0.81-0.7 0.41-0.62 0.26-0.3 0.08-0.03 0.2-0.31 0.53-0.65h0.01l0.65-0.8 1.09-1.29 0.28-0.35 0.05 0.02 0.85-1.11 0.34-1.01 0.13-0.7-0.39 0.08-0.33 0.34 0.05 0.25-0.26 0.06-0.32 0.4-0.66 0.73-0.03 0.07-0.38 0.43-0.03-0.01-0.54 0.65-0.04 0.06-0.54 0.63-0.95 1.09-0.32 0.4-1.19 1.38h-0.01l-0.44 0.49-0.25 0.33-0.4 0.47-0.83 1.11h-0.02l-0.75 0.95-0.35 0.44-0.3 0.36-0.19 0.26-0.56 0.7-1.08 1.29-0.43 0.55-0.22 0.25-0.25 0.35-0.6 0.76h0.04l-0.08 0.11zm-80.86-30.46l-0.41-0.05-0.1 0.16-0.24 0.85-0.33 0.34-0.23 0.85 0.41 0.05 0.31-0.47 0.15-0.56 0.47-0.36zm42.43-73.99l-0.36-0.46-0.54-0.03-0.54 0.65 0.1 0.52 0.93-0.06zm17.37 113.34l0.44-0.49v-0.67l-0.64 0.13-0.75 0.95 0.05 0.26-0.26 0.05 0.05 0.26 0.65-0.13zm50.93-36.07l0.34 0.34 0.59-0.39 0.42-0.62-0.21-0.36h-0.67l-0.23 0.18zm-0.65-3.23l-0.2 0.31-0.03 1.21 0.62-0.25 0.13-0.7 0.39-0.08-0.24-0.49zm-24.23 34.64l0.62-0.26 0.67-1.34-0.31-0.21-1.01 1.01zm-61.15-81.11l0.38-0.08 0.44-0.49 0.16-0.56 0.26-0.06 0.57-0.51 0.12-0.7-0.51 0.1-0.6 1.06-0.36 0.21-0.41 0.62zm14.34 84.67v0.67l-0.39 0.08-0.67 0.67 0.05 0.26 0.77-0.16 0.29-0.59 0.59-0.39 0.11-0.82-0.52 0.1zm149.33-94.46l-0.03 0.54 0.77 0.52 0.47-0.37-0.13-0.64-0.31-0.21zm-178.88-27.45l0.88-0.98 0.02-0.54-0.25 0.05-0.24 0.18-1.08 1.29-0.16 0.57 0.52-0.1zm68.39 118.06l-0.54-0.03-0.31 0.47 0.05 0.93 0.54 0.02 0.31-0.46zm-43.46 6.25l-0.64 0.13-0.34 0.33 0.08 0.39h0.67l0.21-0.31 0.72-0.41v-0.67l-0.18-0.23zm-30.64-76.86l-0.15 0.56 0.26-0.05 0.87-0.98-0.05-0.26 0.26-0.05 0.18-0.44 0.52-0.77-0.41-0.05zm-7.32 58.92l0.03 0.8 0.39-0.08 0.23-0.85 0.67-1.34-0.41-0.06zm44.94-26.41l0.13 0.64 0.54 0.03 0.42-0.62-0.26-0.62-0.54-0.03zm-0.98 32.15l-0.23-0.49-0.77 0.15-0.31 0.47 0.23 0.49 0.64-0.13zm111.63-46.83l-0.24 0.18 0.16 0.77 0.33 0.34 0.55 0.02v-0.67l-0.39-0.59zm-158.05-4.86l-0.26 0.05 0.06 0.26-0.26 0.05-0.08 0.29-0.03 0.54 0.39-0.08 0.83-1.24 0.02-0.54-0.38 0.08-0.34 0.33zm17.39-73.68v0.67l0.65-0.13 0.43-0.49-0.1-0.52h-0.67zm229.61-26.81l0.26 0.62 0.77-0.16 0.21-0.31-0.23-0.49-0.57-0.15zm-224.37 170.9l0.37 1.13 0.51-0.1 0.16-1.24-0.93 0.05zm9.89-8.28v0.67l0.54 0.03 0.34-0.34-0.03-0.8-0.54-0.03zm39.1-196.79l-0.52 0.1-0.51 0.77-0.7 0.54 0.1 0.52 1.71-1.55zm-21.76 175.35l0.02-0.54-0.39 0.08-0.82 0.57 0.02 0.8 0.52-0.11 0.08-0.28zm-18.29 18.01l0.15-0.57-0.26 0.06-1.06 1.41-0.13 0.7 0.5-0.23zm12.21-8.75l-0.02-0.8-0.39 0.08-0.1 0.15-0.73 0.42-0.02 0.54 1.03-0.21zm2.43-97.55l-0.13 0.7 0.38-0.08 0.65-0.8 0.13-0.69-0.39 0.07zm-8.55 105.89l-0.1 0.83 1.08-0.62v-0.67l-0.41-0.06zm1.97-5.62l-0.52 0.77 0.21 0.36 0.75-0.28 0.12-0.7zm187.58-119.51l-0.23 0.18 0.13 0.64 0.57 0.16 0.36-0.21 0.03-0.54-0.31-0.21zm-228.73 49.19l0.15-0.57-0.38 0.08-1.14 1.7 0.54 0.03zm54.86 30l0.15 0.11 0.47-0.37-0.06-0.93-0.54-0.02-0.18 0.44zm-21.66-2.93l-0.36 0.21-0.13 0.69h0.67l0.34-0.33v-0.67zm6.27-100.47l-0.15-0.77-0.42-0.06-0.15 0.57v0.67l0.31 0.21zm10.05 42.3l0.59-1.06-0.41-0.05-0.68 0.67-0.25 0.72zm-48.85 43.18l-0.08-0.39-1.21 1.31-0.03 0.55 0.39-0.08zm41.87 64.55l-0.33-0.34-0.57-0.15-0.24 0.18-0.15 0.56h0.67l0.18 0.24 0.26-0.05zm69.73-19.95l0.23 0.49 0.39-0.08 0.43-0.49 0.03-0.54-0.39 0.07zm-68.73 2.71l0.41 0.05 0.44-0.49 0.15-0.57-0.41-0.05-0.44 0.49zm-25.5-68.62l-0.62 0.93 0.1 0.52 0.37-0.21 0.38-0.75 0.16-0.57zm33.68 86.73l-0.13 0.69 0.25-0.05 1.06-1.42-0.28-0.08zm53.29-33.72l-0.52 0.11 0.05 0.93 0.54 0.02 0.08-0.28zm-51.61-11.73l0.52-0.1 0.2-0.31 0.03-0.54-0.41-0.05-0.34 0.33zm-19.24-90.4l-0.21-0.37-0.7 0.55-0.02 0.54 0.54 0.02zm90.93 82.96l-0.37 0.88 0.29 0.08 0.57-0.52 0.12-0.7-0.38 0.08zm-93.74-28.42l0.15-0.57-0.39 0.08-0.56 0.51-0.03 0.54 0.39-0.07zm0.29-22.67l0.03 0.05 0.2-0.19 0.26-0.17 0.1-0.17 0.34-0.32 1.55-2.33 0.16-0.57-0.26 0.06-1.42 1.62-0.72 1.09-0.31 0.46-0.11 0.16 0.09 0.15-0.01 0.23zm60.14 98.14h-0.67l-0.21 0.31 0.23 0.49 0.62-0.25zm-59.28-5.77l-0.46-0.31-0.32 0.47v0.67l0.26-0.05zm-12.17-22.01l-0.26 0.05-0.39 0.75 0.21 0.36 0.49-0.23zm1.77-28.14l0.15-0.57-0.38 0.08-0.42 0.62-0.15 0.56 0.38-0.07zm25.24-16.18l0.39-0.08 0.33-0.33v-0.67l-0.28-0.08-0.41 0.62zm69.79 45.01l-0.05 0.42 0.49 0.44 0.49-0.24-0.36-0.46zm-85.13-103.71l-0.03 0.54 0.62-0.26 0.26-0.72-0.18-0.24zm20.79 92.12l0.03-0.55-0.29-0.07-0.31 0.46-0.15 0.57 0.52-0.1zm-21.65-31.13l-0.16 0.57-0.26 0.05 0.06 0.26 0.72-0.41 0.26-0.73-0.42-0.05zm8.33 78.09l0.13 0.64 0.52-0.1 0.33-0.33-0.33-0.34zm4.31-4.62l-0.44-0.18-0.33 0.33 0.1 0.52 0.62-0.26zm-39.88-80.78l-0.28-0.08-0.34 0.33v0.67l0.59-0.38zm110.1 55.23l-0.26 0.05-0.85 1.11 0.41 0.06 0.55-0.65zm-35.9 3.13l-0.1 0.16 0.13 0.64 0.41 0.05 0.11-0.82zm-40.64-113.53l-0.03 0.54 0.39-0.08-0.05-0.25 0.26-0.06-0.05-0.25 0.46-0.37-0.41-0.05zm-9.76 154.33l-0.13 0.7 0.26-0.06-0.06-0.25 0.26-0.06 0.39-0.74-0.41-0.06zm37.44-14.18l-0.12 0.7 0.38-0.08 0.21-0.31 0.15-0.57-0.51 0.11zm-30.5 3.26l0.11 0.52 0.49-0.24 0.02-0.54-0.41-0.05zm-8.78 0.41l0.03-0.54h-0.68l0.29 0.75zm-23.46-18.68l0.64-0.13-0.13-0.65-0.51 0.1zm48.3-35.14l0.03-0.54-0.42-0.05-0.1 0.15-0.13 0.7zm-15.39-1.76l0.75-0.29 0.03-0.54-0.39 0.08-0.23 0.18zm80.88 17.83l0.24 0.49 0.49-0.23-0.13-0.65-0.39 0.08zm-78.42-86.26l-0.26 0.06-0.21 0.3v0.68l0.49-0.24zm77.26 89.18l-0.36 0.2-0.52 0.78 0.29 0.08 0.67-0.68zm15.61-30.1l-0.49 0.91 0.49-0.23 0.65-0.8-0.18-0.24zm-71.71-0.73l-0.08-0.39-0.51 0.11-0.11 0.15-0.02 0.54 0.39-0.07zm-19.48-89.56l0.39-0.08 0.28-0.59-0.31-0.21-0.46 0.36zm-13.4 154.25l0.54 0.03 0.15-0.57-0.54-0.03zm18.13-5.36l-0.26 0.05 0.05 0.26-0.93 0.05 0.08 0.39 0.9-0.18zm55.01-15l0.49-0.23v-0.67l-0.39 0.07-0.1 0.16zm-65.59 2.34l-0.28-0.08-0.23 0.18-0.13 0.7 0.49-0.23zm23.73-45.28l-0.08-0.39-0.26 0.05-0.46 0.36-0.06 0.42 0.52-0.11zm-47.01 37.58l0.26-0.06-0.06-0.25-0.25 0.05-0.55 0.64-0.05 0.42 0.49-0.24zm13.15-19.54l-0.2-0.36-0.36 0.21-0.16 0.57 0.41 0.05zm33.81-121.26l-0.07-0.39-0.8 0.7 0.05 0.25 0.38-0.07zm-14.48 154.19l0.15-0.57-0.28-0.08-0.36 0.21-0.05 0.41zm99.53-35.42l0.23 0.49 0.41 0.05-0.15-0.77-0.39 0.07zm-136.97 25.44l-0.25 0.05-0.21 0.31-0.16 0.57 0.49-0.23zm36.22-124.7l0.62-0.25 0.15-0.57-0.39 0.08-0.33 0.33zm22.3 160.28l-0.15 0.57 0.39-0.08 0.41-0.62-0.41-0.05zm-28.29-26.04l-0.39 0.08-0.08 0.28-0.15 0.57 0.39-0.08zm1.99-0.8l-0.24 0.18v0.67l0.36-0.2 0.13-0.7zm78.2-20.56l0.03-0.55-0.52 0.11-0.13 0.69zm11.29-19.43l-0.2-0.37-0.24 0.19 0.06 0.25-0.26 0.06-0.16 0.56 0.26-0.05zm-118.04 18.71l0.52-0.1-0.1-0.52-0.41-0.05-0.21 0.31zm141.77-30.29l0.41 0.05v-0.67l-0.41-0.05zm-121.26 13.31l-0.03 0.54 0.49-0.23 0.03-0.54-0.26 0.05zm-0.63-24.71l-0.39 0.08v0.67l0.39-0.08zm-23.05-13.93l-0.39 0.08-0.1 0.15-0.16 0.57 0.49-0.23zm15.94-8.95l-0.34 0.33 0.05 0.26-0.36 0.21 0.08 0.38 0.85-1.11zm108.14 46.1l-0.02 0.54 0.49-0.23 0.02-0.54-0.26 0.05zm-79.83-1.8l-0.26 0.05-0.1 0.16-0.03 0.54 0.39-0.08zm-45.42-5.57l0.75-0.29-0.05-0.25-0.78 0.15zm17.75-7.3l-0.03 0.54 0.49-0.23 0.03-0.54-0.39 0.08zm9.67-19.52l-0.39 0.08-0.1 0.15-0.03 0.55 0.49-0.24zm-11.15-0.72l-0.05 0.41 0.74-0.29-0.05-0.25-0.41-0.06zm14.99-31.85l-0.36 0.21-0.03 0.54 0.39-0.08 0.21-0.31zm-17.91-16.43l0.49-0.23-0.08-0.39-0.41-0.05-0.18 0.44zm8.19 141.34l-0.55-0.02 0.39 0.59 0.26-0.05zm10.62-10.04l-0.03 0.54 0.39-0.07 0.13-0.7-0.26 0.05zm10.41-3.01l0.23 0.49 0.39-0.08-0.11-0.52-0.41-0.05zm22.34-17.21l-0.51 0.1 0.23 0.49 0.49-0.23zm-41.04-24.7l0.49-0.24 0.05-0.41-0.41-0.05-0.11 0.15zm34.84-8.42l-0.41-0.05-0.03 0.54 0.54 0.02zm-5.78-111.08l-0.15 0.57 0.7-0.54-0.21-0.37zm-29.45 171.41l0.39-0.07 0.03-0.55-0.39 0.08zm77.09-28.8l-0.54-0.03-0.03 0.54 0.39-0.07zm-50.99-14.67l-0.39 0.08-0.15 0.57 0.51-0.11zm-34.99 5.64l-0.28-0.08-0.23 0.18-0.03 0.55 0.49-0.24zm31.61-11.14l-0.26 0.06-0.23 0.18-0.05 0.41 0.52-0.1zm-23.03 45.4l-0.39 0.08-0.16 0.57 0.39-0.08zm6.51-6.4l0.47-0.36 0.15-0.57-0.26 0.05-0.41 0.62zm7.85-7.74l-0.54-0.03-0.05 0.42 0.41 0.05zm5.74-2.22l-0.21-0.36-0.23 0.18v0.67zm83.31-34.61l0.39-0.07-0.05-0.26 0.26-0.05-0.21-0.36-0.23 0.18zm-71.58-2.78l-0.25 0.05-0.11 0.16-0.02 0.54 0.36-0.21zm47.08 35.45l0.54 0.03 0.03-0.54-0.26 0.05zm-70.44 6.26l-0.39 0.08-0.03 0.54 0.49-0.23zm9.87-3.04l0.41 0.05 0.03-0.54-0.39 0.08zm-21.78-29.76l0.49-0.23 0.05-0.42-0.38 0.08zm17.4-43.34l0.07 0.39 0.42 0.05 0.05-0.42zm-1.47-1.31l-0.65 0.13 0.08 0.38 0.62-0.26zm-7.64-1.29l-0.39 0.08-0.03 0.54 0.39-0.08zm-2.37-14.56l-0.26 0.05-0.23 0.18 0.08 0.39 0.39-0.08zm8.53-28.55l-0.28-0.08-0.31 0.46 0.54 0.03zm-5.83-15.75l-0.38 0.07-0.03 0.55 0.49-0.24zm44.16-44.22l-0.08-0.38-0.41-0.06-0.05 0.42zm-5.97-5.66l-0.54-0.03 0.08 0.39 0.41 0.05zm17.11 200.62l0.26-0.05 0.16-0.56-0.39 0.07zm0.29-2.61l-0.26 0.06-0.16 0.56 0.39-0.07zm-38.37-9.94l0.52-0.1 0.08 0.39-0.52 0.1zm-6.53-0.44l-0.41-0.05-0.06 0.41 0.55 0.02zm23.63-4.71l0.1 0.52 0.36-0.21-0.23-0.49zm28.12-9.77l-0.52 0.1-0.07 0.29 0.54 0.02zm-56.04 10.51l-0.41-0.05-0.05 0.41 0.54 0.03zm1.16-1.58l-0.26 0.05-0.15 0.57 0.39-0.08zm88.71-34.47l0.72-0.42-0.05-0.25-0.39 0.07zm-109.43-43.15l-0.52 0.78 0.29 0.07 0.51-0.77zm6.46-53.11l-0.23 0.18-0.03 0.54 0.47-0.36zm3.92-1.18l-0.38 0.07 0.1 0.52 0.36-0.21zm1.21 156.84l0.26-0.05 0.15-0.57-0.38 0.08zm23.63-15.46l-0.08-0.38-0.38 0.07-0.08 0.29 0.18 0.23zm-14.28-6.95l0.06-0.42-0.29-0.07-0.15 0.56zm90.83-40l-0.29-0.08-0.15 0.57 0.39-0.08zm0.57-1.18l-0.06 0.41 0.49-0.23-0.2-0.36zm-110.21 13.52l-0.16 0.57 0.39-0.08 0.05-0.41zm-26.32-32.34l-0.41-0.05-0.16 0.56 0.26-0.05zm56.98-33.38l-0.1 0.15 0.46 0.31 0.03-0.54zm-37.07-26.3l-0.52 0.1 0.08 0.39 0.39-0.08zm25.31-9.75l0.26-0.05 0.15-0.57-0.39 0.08zm-8.85-4.01l-0.41-0.05-0.03 0.55 0.26-0.06zm-2.79 146.9l0.42 0.05 0.05-0.41-0.29-0.08zm19.6-43.78l0.08 0.38 0.28 0.08 0.03-0.54zm-22.65-1.12l0.47-0.36-0.06-0.26-0.38 0.07zm3.38-1.21l0.39-0.07 0.05-0.42-0.39 0.08zm4.23-31.99l0.05 0.26 0.52-0.11-0.08-0.38-0.26 0.05zm7.61-85.02l-0.39 0.07-0.05 0.42 0.39-0.08zm56.83 154.33l-0.42-0.05-0.07 0.28 0.18 0.24zm-45.32-3.05l-0.05 0.42 0.41 0.05-0.1-0.52zm-43.94-8.96l-0.26 0.06-0.28 0.59 0.59-0.39zm119.69-27.9l0.39-0.08 0.08 0.39-0.39 0.08zm-112.46 17.06l-0.41-0.05-0.05 0.41 0.39-0.08zm13.68-43.81l-0.21 0.31 0.31 0.21 0.16-0.57zm10.74-13.42l-0.05 0.41 0.49-0.23-0.05-0.26zm-6.89-1.58l-0.39 0.08-0.08 0.29 0.42 0.05zm-3.05-54.98l-0.28-0.07-0.16 0.56 0.26-0.05zm15.79-23.15l-0.41-0.05-0.21 0.31 0.41 0.05zm45.72 166.62l-0.1 0.15 0.08 0.39 0.33-0.34zm13.57-13.44l0.38-0.08-0.07-0.39-0.26 0.06zm-63.22 9.52l0.39-0.08-0.08-0.39-0.25 0.05zm4.31-9.32l0.39-0.07-0.05-0.26-0.42-0.05zm-4.38-0.47l-0.08 0.28 0.41 0.06 0.08-0.29zm69.34-21.88l-0.11 0.15 0.21 0.36 0.16-0.57zm10.87-5.39l-0.16 0.57 0.37-0.21zm8.65-7.76l0.28 0.07 0.21-0.31-0.54-0.02zm-123.61 19.69l0.41 0.05 0.05-0.41-0.26 0.05zm17.9-13.24l0.05-0.41-0.25 0.05-0.21 0.31zm-2.63-0.41l-0.08 0.28 0.41 0.05 0.08-0.28zm2.35-1.68l-0.26 0.05-0.21 0.31 0.42 0.05zm6.96-41.13l-0.18 0.44 0.42 0.06zm5.19-56.76l-0.16 0.57 0.37-0.2zm-1.96-5.12l-0.39 0.08 0.08 0.39 0.25-0.06zm-3.07 156.89l0.26-0.05 0.05-0.41-0.26 0.05zm18.39-7.43l0.33-0.34-0.41-0.05zm-17.12-4.37l-0.31 0.46 0.39-0.07zm72.03-20.54l0.05 0.25 0.38-0.07-0.2-0.37zm20.49-22.47l0.36-0.21-0.05-0.26-0.39 0.08zm-88.15-9.14l-0.26 0.06-0.07 0.28 0.41 0.05zm2.49-27.88l0.05-0.42-0.26 0.05-0.05 0.42zm-0.04-68.19l0.05 0.25 0.49-0.23zm2.09 153.84l0.26-0.05 0.08 0.39-0.26 0.05zm65.23-19.59l0.39-0.08 0.05 0.26-0.38 0.08zm-62.29 3.43l-0.23 0.18 0.05 0.25 0.26-0.05zm3.29-17.84l-0.41-0.05 0.2 0.36zm76.6-16.48l-0.19 0.43 0.47-0.36zm-95.23 15.91l-0.29-0.08-0.18 0.44zm3.29-16.49l0.38-0.08 0.06 0.26-0.39 0.07zm-1.49-8.83l0.46-0.36-0.28-0.08zm-35.52-16.54l-0.24 0.18 0.05 0.26 0.26-0.05zm4.78-6.33l-0.02 0.55 0.23-0.18zm22.02-34.34l0.31 0.21 0.05-0.41-0.26 0.05zm16.83-46.18l-0.26 0.05-0.05 0.41 0.36-0.21zm35.5-29.06l0.26-0.06 0.08 0.39-0.26 0.05zm11.58-21.37l-0.05 0.41 0.36-0.2zm-61.45 223.4l0.26-0.05-0.2-0.36zm7.93-5.34l0.41 0.05-0.05-0.26-0.26 0.05zm31.25-6.9l0.2 0.36 0.05-0.41zm33.83-8.09l0.36-0.21-0.41-0.05zm4.31-2.61l0.26-0.05-0.2-0.36zm1.96-2.27l0.26-0.05-0.21-0.36zm-67.96 10.6l-0.26 0.05-0.11 0.16 0.42 0.05zm77.52-20.57l0.36-0.2-0.41-0.06zm-68.51 8.57l0.06 0.26 0.36-0.21zm6.52-35.94l0.21 0.36 0.05-0.41zm-18.36 0.84l-0.05 0.42 0.26-0.06zm-0.34-38.06l-0.29-0.07-0.05 0.41zm-3.71-59.67l-0.26 0.05 0.21 0.36zm15.18-3.97l0.36-0.21-0.41-0.05zm8.21-7.28l-0.28-0.07-0.05 0.41zm-23.97 165.89l0.26-0.06 0.05 0.26-0.26 0.05zm91.6-24.04l0.26-0.05 0.05 0.26-0.26 0.05zm-84.93 9.02l0.26-0.05 0.05 0.25-0.26 0.06zm2.69-2.69l0.26-0.05 0.05 0.26-0.26 0.05zm5.76-10.14l0.26-0.06 0.05 0.26-0.26 0.05zm-2.14-4l0.26-0.05 0.05 0.26-0.25 0.05zm83.92-20.77l0.39-0.08-0.28-0.08zm-111.76 15.85l0.25-0.05 0.06 0.26-0.26 0.05zm9.51-14.92l-0.11 0.16 0.39-0.08zm9.81-2.63l0.26-0.05 0.05 0.26-0.25 0.05zm-0.66-32.9l0.26-0.05 0.05 0.26-0.26 0.05zm-19.29 2.91l0.26-0.05 0.05 0.26-0.25 0.05zm-11.7-4.79l0.26-0.05 0.05 0.26-0.26 0.05zm50.65-16.68l0.38-0.08-0.28-0.07zm-4.91-54.2l-0.28-0.08-0.1 0.15zm4.42-6.78l-0.29-0.08-0.1 0.15zm24.58-33.33l0.26-0.05 0.05 0.26-0.26 0.05zm9.42 189l0.24-0.19-0.29-0.07zm-49.55 9.35l0.23-0.19-0.28-0.07zm6.92-7.02l0.23-0.18-0.28-0.08zm50.02-21.79l0.24-0.19-0.29-0.07zm21.78-12.67l0.05 0.26 0.23-0.18zm-3.43-1.06l0.23-0.18-0.29-0.08zm-65.48 10.91l0.28 0.08-0.18-0.23zm81.12-22.09l0.28 0.08-0.18-0.23zm2.32-2.48l0.24-0.18-0.29-0.08zm-105.9 16.96l-0.18-0.23-0.1 0.16zm26.34-13.31l-0.18-0.24-0.1 0.16zm-37.74-69.4l0.05 0.26 0.23-0.18zm36.17-37.43l-0.28-0.07 0.05 0.25zm4.75-5.11l-0.18-0.23-0.1 0.16zm-7.43-8.99l-0.11 0.15 0.29 0.08zm61.65-75.74l0.05 0.26 0.23-0.18z"/>
</svg>